<svg xmlns="http://www.w3.org/2000/svg" width="40" height="40" fill="none" viewBox="0 0 40 40"><g clip-path="url(#a)"><path fill="#fff" d="M1 1h38v38H1z"/><path fill="#0038B8" d="M1 4.563h38V10.5H1zM1 29.5h38v5.938H1zM20 28.227l-2.625-4.114h-5.251L14.749 20l-2.625-4.113h5.25L20 11.773l2.625 4.114h5.251L25.251 20l2.625 4.113h-5.25zm-.956-4.114L20 25.615l.956-1.501zm4.416-1.306h1.917l-.956-1.5zm-5.25 0h3.58L23.582 20l-1.79-2.807h-3.582L16.42 20zm-3.587 0h1.917l-.956-1.5zm8.837-5.614.956 1.5.956-1.5zm-8.837 0 .956 1.5.955-1.5zm4.421-1.307h1.917l-.961-1.5z"/></g><defs><clipPath><path fill="#fff" d="M1 1h38v38H1z"/></clipPath></defs></svg>