<svg xmlns="http://www.w3.org/2000/svg" width="40" height="40" fill="none" viewBox="0 0 40 40"><g clip-path="url(#a)"><path fill="#002B7F" d="M39 7.5H1v25h38z"/><path fill="#CE1126" d="M39 20H1v12.5h38z"/><path fill="#FFD83D" d="M7.042 14.254v-1.783q-.069.018-.137.041v1.826a.7.7 0 0 0 .137-.084M8.84 13.75q.021-.082.037-.183a.6.6 0 0 0-.038-.321zM6.46 13.008q-.029.112-.03.255.002.188.03.37zM7.874 13.992l.137.037v-1.487a1 1 0 0 0-.137-.05zM7.293 12.43v1.582a.5.5 0 0 1 .137-.066v-1.521h-.023q-.057.002-.114.004M8.068 14.046l.137.037v-1.45q-.069-.036-.137-.066zM7.14 14.163a1 1 0 0 1 .096-.1v-1.626a2 2 0 0 0-.137.021v1.75zM8.646 12.958v1.109c.003 0 .007-.005.007-.005a.4.4 0 0 0 .13-.162v-.767q-.004-.006-.008-.012c-.034-.059-.08-.109-.13-.163M8.452 14.12q.075 0 .137-.02v-1.196a1 1 0 0 0-.137-.112zM6.518 13.912q.046.177.11.346.004.002.007.004.013.013.02.025v-1.616a.7.7 0 0 0-.137.187zM7.487 13.938a1 1 0 0 1 .136 0v-1.5a2 2 0 0 0-.136-.009zM7.68 13.946q.07.013.137.033v-1.504l-.099-.025q-.018-.002-.038-.004zM8.395 14.117V12.75l-.137-.088v1.434q.075.017.137.02M6.795 14.358q.03.001.053-.004v-1.816a1 1 0 0 0-.137.083v1.712q.04.02.084.025M8.938 12.208c0 .071.046.134.103.154h.011l.046.009c.076-.004.14-.075.14-.163 0-.091-.068-.162-.148-.162s-.152.07-.152.162M8.665 12.263c.083 0 .148-.075.148-.163s-.069-.162-.148-.162c-.084 0-.149.074-.149.162s.065.162.149.162M8.235 12.142c.084 0 .148-.075.148-.163 0-.091-.068-.162-.148-.162s-.148.075-.148.162c0 .092.068.163.148.163M7.806 12.063c.083 0 .148-.075.148-.163 0-.092-.068-.162-.148-.162-.084 0-.148.075-.148.162 0 .092.068.162.148.162M7.376 12.017c.084 0 .149-.075.149-.163 0-.091-.069-.162-.149-.162-.083 0-.148.075-.148.162 0 .092.069.163.148.163M6.955 12.046c.083 0 .148-.075.148-.163 0-.091-.069-.162-.148-.162-.084 0-.149.075-.149.162s.069.163.149.163M6.556 12.196c.083 0 .148-.075.148-.163 0-.091-.069-.162-.148-.162-.084 0-.149.075-.149.162-.003.088.065.163.149.163M6.217 12.467c.084 0 .149-.075.149-.163 0-.087-.069-.162-.149-.162-.083 0-.148.075-.148.162s.065.163.148.163M5.978 12.846c.082 0 .148-.073.148-.163s-.066-.162-.148-.162-.148.073-.148.162.066.163.148.163M5.86 13.296c.084 0 .148-.075.148-.163 0-.087-.068-.162-.148-.162-.083 0-.148.075-.148.162s.065.163.148.163M6.016 13.596c0-.092-.068-.163-.148-.163s-.148.075-.148.163c0 .091.068.162.148.162s.148-.07.148-.162M5.948 14.217c.083 0 .148-.075.148-.163 0-.091-.069-.162-.148-.162-.08 0-.149.075-.149.162-.003.088.065.163.149.163"/><path fill="#FFD83D" d="M8.813 12.625q.012.004.03.008l.152.038q.004-.05.008-.1c0-.008 0-.021.004-.03v-.062c-.084-.02-.171-.046-.263-.07-.456-.126-.972-.272-1.478-.272-.745 0-1.147.6-1.147 1.167 0 .35.06.654.152.946q.023.001.045.008c.015.005.027.005.042.009a.3.3 0 0 1 .053.016h.008a.4.4 0 0 1 .076.03c.034.012.064.033.095.05q-.012-.026-.02-.05l-.01-.034-.012-.029q-.014-.036-.027-.07-.016-.046-.026-.088c-.012-.034-.02-.063-.03-.096a2.7 2.7 0 0 1-.107-.73c0-.178.038-.337.106-.466a.4.4 0 0 1 .03-.05l.027-.042a.7.7 0 0 1 .179-.175 1 1 0 0 1 .156-.087c.011-.004.026-.013.042-.017q.08-.03.167-.05.005.001.011-.004.153-.031.335-.033h.08299999999999999q.069.001.137.008.013-.001.03.004c.008 0 .02.004.027.004q.069.008.137.021c.007 0 .019.004.026.004.012 0 .02.005.03.005q.057.01.119.02c.007 0 .015.005.019.005.011 0 .019.004.03.004q.016.001.027.008l.155.037h.004c.008 0 .015.005.023.005l.144.037c.008 0 .012.004.02.004q.006-.001.007.005.013.004.03.008l.137.037q.004-.001.008.005c.007 0 .015.004.019.004q.016.004.026.008l.137.038a.03.03 0 0 0 .027.012M11.442 12.425v1.52a.5.5 0 0 1 .137.067v-1.587c-.038-.004-.08-.004-.114-.004q-.01.005-.023.004M11.055 13.975c.045-.012.091-.02.137-.033v-1.5q-.02.002-.038.004a.6.6 0 0 0-.1.025zM11.727 14.158q.023.02.046.046v-1.75q-.069-.014-.137-.02v1.624q.045.045.091.1M11.249 13.938a.5.5 0 0 1 .136 0v-1.509q-.067.001-.136.008zM12.35 12.854a.7.7 0 0 0-.136-.187v1.616a.1.1 0 0 0 .019-.025q.001-.005.007-.004.064-.166.11-.346zM12.077 14.358q.044 0 .084-.025v-1.712a1 1 0 0 0-.137-.084v1.817a.2.2 0 0 0 .053.004M11.963 14.338v-1.825a1 1 0 0 0-.137-.042v1.783a1 1 0 0 0 .137.084M10.804 14.046v-1.48q-.069.03-.137.067v1.45zM10.861 14.03l.137-.038v-1.5c-.042.012-.091.033-.137.05zM10.28 14.1c.041.017.087.02.136.02v-1.328q-.074.056-.136.112zM10.61 14.096v-1.434a1 1 0 0 0-.137.088v1.367c.042-.005.088-.009.137-.021M10.086 13.133v.767a.36.36 0 0 0 .137.167v-1.109a1 1 0 0 0-.13.159q0 .011-.007.016M10.029 13.246a.6.6 0 0 0-.038.32q.016.102.038.184zM12.408 13.638q.03-.183.03-.371 0-.143-.03-.255zM9.634 12.208c0 .088.06.159.14.163l.046-.009h.011a.16.16 0 0 0 .103-.154c0-.091-.069-.162-.148-.162-.08 0-.152.07-.152.162M10.204 12.263c.083 0 .148-.075.148-.163s-.069-.162-.148-.162c-.084 0-.149.074-.149.162s.069.162.149.162M10.633 12.142c.084 0 .148-.075.148-.163 0-.091-.068-.162-.148-.162s-.148.075-.148.162a.15.15 0 0 0 .148.163M11.062 12.063c.084 0 .149-.075.149-.163 0-.092-.069-.162-.149-.162-.083 0-.148.075-.148.162 0 .092.065.162.148.162M11.492 12.017c.083 0 .148-.075.148-.163 0-.091-.068-.162-.148-.162-.084 0-.148.075-.148.162 0 .092.064.163.148.163M11.914 12.046c.083 0 .148-.075.148-.163 0-.091-.069-.162-.148-.162-.084 0-.149.075-.149.162-.003.088.065.163.149.163M12.316 12.196c.084 0 .149-.075.149-.163 0-.091-.069-.162-.149-.162-.083 0-.148.075-.148.162-.004.088.065.163.148.163M12.655 12.467c.083 0 .148-.075.148-.163 0-.087-.069-.162-.148-.162-.084 0-.149.075-.149.162s.065.163.149.163M12.894 12.846c.082 0 .148-.073.148-.163s-.066-.162-.148-.162-.148.073-.148.162.066.163.148.163M12.86 13.133c0 .092.068.163.148.163.084 0 .148-.075.148-.163 0-.087-.068-.162-.148-.162-.08-.004-.148.07-.148.162M13.156 13.596c0-.092-.068-.163-.148-.163s-.148.075-.148.163c0 .091.068.162.148.162s.148-.07.148-.162M12.772 14.05c0 .092.069.162.149.162s.148-.075.148-.162c0-.092-.069-.163-.148-.163-.08 0-.149.071-.149.163"/><path fill="#FFD83D" d="M12.457 14.283h.008a.3.3 0 0 0 .053-.016c.015-.005.026-.005.042-.009q.023-.004.045-.008c.091-.292.152-.6.152-.946 0-.566-.403-1.167-1.147-1.167-.502 0-1.019.142-1.479.271-.09.025-.174.05-.262.071v.063q-.001.014.004.029.004.05.008.1l.152-.038q.012-.004.03-.008.013-.004.027-.008l.136-.038q.017-.004.027-.008c.008 0 .015-.004.019-.004q.004.001.008-.005l.136-.037q.014-.004.03-.008.008.001.008-.005.01-.002.02-.004l.144-.037q.01-.002.023-.004h.003l.156-.038c.008-.004.02-.004.027-.008.011 0 .019-.004.03-.004.008 0 .015-.005.02-.005a1 1 0 0 1 .117-.02c.008 0 .019-.005.03-.005.008 0 .02-.004.027-.004q.068-.01.137-.02c.007 0 .019-.005.026-.005q.017.001.03-.004.069-.007.138-.008h.08299999999999999a1.7 1.7 0 0 1 .346.037q.089.02.167.05.021.01.042.017a1 1 0 0 1 .156.088c.015.008.026.02.042.029a.7.7 0 0 1 .163.187q.015.026.03.05.105.197.107.467a2.7 2.7 0 0 1-.137.825l-.027.087a1 1 0 0 1-.026.071l-.012.03-.011.033q-.012.024-.019.05c.03-.017.06-.038.095-.05a.3.3 0 0 1 .076-.034M9.436 11.188c.042 0 .08.008.114.016l.038-.075-.144-.3h-.016l-.144.3.038.075a.5.5 0 0 1 .114-.017M9.436 10.425l.152-.308-.152-.313-.152.313zq-.006 0 0 0M9.25 10.646v-.017q-.001-.012.004-.025l-.206-.141-.239.166.24.167zM9.618 10.646l.206.141.239-.166-.24-.167-.205.142q.002.012.004.025-.002.018-.004.025M9.478 10.517a.1.1 0 0 0-.038-.009h-.008q-.021.002-.038.009c-.023.008-.038.029-.05.05a.2.2 0 0 0-.014.037q-.002.013-.004.025v.013q0 .023.011.041a.13.13 0 0 0 .05.055q.015.006.038.012h.015a.06.06 0 0 0 .038-.012.1.1 0 0 0 .05-.055.1.1 0 0 0 .01-.041v-.013q0-.012-.003-.025c-.004-.012-.008-.029-.015-.037a.06.06 0 0 0-.042-.05M9.307 11.358V11.3l-.023.012a.38.38 0 0 0-.179.205c.069-.009.133-.017.202-.021v-.138M9.588 11.308q-.011-.007-.023-.008v.192c.069.004.133.012.202.02a.4.4 0 0 0-.179-.204"/><path fill="#FFD83D" d="M9.075 11.667q.001.036.008.07.352-.056.706 0a.4.4 0 0 0 .008-.07q-.001-.045-.008-.088a3 3 0 0 0-.25-.029c-.016 0-.027-.013-.027-.03v-.241a.4.4 0 0 0-.072-.008.4.4 0 0 0-.072.008v.242c0 .016-.012.029-.027.029a2 2 0 0 0-.25.03.2.2 0 0 0-.016.087M9.774 11.796a2 2 0 0 0-.676 0c.05.154.182.262.338.262a.36.36 0 0 0 .338-.262M9.102 13.95c.049-.27.083-.558.106-.82q.016-.165.027-.31.009-.117.019-.224l.003-.03q.002-.017.004-.029c0-.016.004-.033.004-.05l-.057-.012-.114-.02-.011-.005v.008c0 .013 0 .03-.004.042v.083c-.004.038-.004.071-.008.109 0 .012-.004.029-.004.041l-.003.042c-.035.442-.095.896-.22 1.287l-.012.034.011-.008a.8.8 0 0 1 .259-.138M9.61 12.57c0 .01.005.022.005.03q.009.1.019.225.01.145.026.308c.023.263.057.55.107.821q.149.044.258.138.006.004.011.008l-.011-.033c-.125-.392-.186-.846-.22-1.288 0-.012-.004-.029-.004-.041s-.004-.03-.004-.042c-.004-.038-.004-.071-.008-.108v-.083c0-.013 0-.03-.003-.043v-.008l-.012.004-.114.021-.057.013q.002.024.004.05.005.01.004.029"/><path fill="#FFD83D" d="M12.658 14.33q-.02 0-.041.003c-.016 0-.03.004-.042.004h-.008c-.011 0-.019.005-.026.005q-.016.004-.03.008c-.008.004-.016.004-.027.008q-.004-.001-.008.004a.8.8 0 0 0-.255.142l-.007.008q-.017.013-.027.025l-.026.03-.012.012a1 1 0 0 0-.125.18q-.017.025-.027.058a.2.2 0 0 0-.019.045c-.015.034-.026.071-.042.109-.007.02-.026.033-.045.025-.02-.004-.03-.025-.03-.046.026-.33-.077-.613-.225-.78l-.011-.012c-.004-.004-.012-.008-.015-.016l-.03-.025-.016-.013a.4.4 0 0 0-.122-.07c-.007-.005-.019-.005-.03-.01q-.006-.002-.011-.003-.008.001-.016-.004-.033-.006-.068-.005c-.023 0-.046.005-.068.005h-.004q-.011.002-.023.004a.1.1 0 0 0-.027.008.6.6 0 0 0-.136.054c-.012.004-.02.013-.027.017q-.015.008-.03.017-.07.043-.137.1-.017.012-.03.025-.017.012-.027.025-.075.068-.137.137l-.03.033-.023.025c-.053.063-.103.13-.145.188-.011.012-.019.03-.026.042l-.023.037c-.034.054-.065.1-.08.133a.04.04 0 0 1-.042.021c-.015-.004-.026-.02-.03-.037a1.2 1.2 0 0 0-.091-.442q-.013-.028-.03-.058l-.039-.063c-.007-.012-.015-.02-.022-.033-.008-.013-.02-.02-.027-.033q-.013-.015-.03-.03a.7.7 0 0 0-.244-.15l-.041-.012-.042-.013c-.008 0-.012-.004-.02-.004a1 1 0 0 0-.208-.025h-.07600000000000001a1 1 0 0 0-.21.025c-.007 0-.01.004-.018.004l-.042.013-.042.012a.7.7 0 0 0-.243.15q-.015.015-.03.03c-.012.012-.02.02-.027.033l-.023.033a1 1 0 0 0-.038.063q-.015.025-.03.058a1.1 1.1 0 0 0-.091.442.04.04 0 0 1-.03.037.04.04 0 0 1-.043-.02 1 1 0 0 0-.08-.134l-.022-.037-.027-.042a3 3 0 0 0-.144-.188l-.023-.025c-.008-.012-.019-.02-.03-.033q-.042-.044-.084-.087-.024-.026-.053-.05c-.008-.009-.02-.017-.027-.025l-.03-.025a1 1 0 0 0-.137-.1q-.013-.01-.03-.017l-.027-.017a.6.6 0 0 0-.137-.054c-.007-.004-.019-.004-.026-.008-.008 0-.02-.004-.027-.004h-.004a.4.4 0 0 0-.137-.005q-.009-.001-.019.005-.005.002-.011.004-.015.004-.03.008a.4.4 0 0 0-.133.083l-.03.025-.016.017-.011.013c-.149.166-.255.454-.225.783q0 .031-.03.046c-.019.004-.038-.009-.046-.025a1 1 0 0 0-.041-.109l-.02-.045c-.007-.021-.018-.038-.026-.059a.9.9 0 0 0-.125-.179l-.012-.012-.026-.03c-.008-.008-.02-.016-.027-.025l-.008-.008a.7.7 0 0 0-.254-.142q-.004.001-.008-.004-.01-.004-.026-.008-.013-.004-.03-.008c-.008-.005-.02-.005-.027-.005H6.3q-.021-.005-.042-.004c-.015 0-.026-.004-.042-.004a.88.88 0 0 0-.592.213c.235.241.399.691.558 1.125.126.345.247.675.395.895a.33.33 0 0 1 .133-.087l-.03-.108c-.004-.017.004-.034.019-.038a.027.027 0 0 1 .034.02l.03.105q.045-.013.096-.03l-.027-.107c-.004-.017.004-.034.019-.038a.027.027 0 0 1 .034.02l.027.11a1 1 0 0 1 .099-.022l-.02-.104a.03.03 0 0 1 .023-.037c.016-.004.03.008.035.025l.019.104c.03-.004.064-.013.098-.017l-.019-.108a.033.033 0 0 1 .023-.038c.015-.004.03.009.034.025l.02.113q.063-.012.132-.017l-.015-.104a.033.033 0 0 1 .023-.037c.015-.005.03.008.034.025l.015.108c.05-.004.1-.013.149-.017l-.012-.083a.033.033 0 0 1 .023-.038c.015-.004.03.009.034.025l.015.088.149-.013-.016-.141a.027.027 0 0 1 .027-.034c.015 0 .03.009.03.03l.016.145q.063-.007.133-.008l-.012-.112a.027.027 0 0 1 .027-.034c.015 0 .03.009.03.03l.015.116q.065-.004.13-.008l-.016-.13a.027.027 0 0 1 .027-.033c.015 0 .03.009.03.03l.016.133c.041 0 .083-.004.121-.004l-.007-.146c0-.017.011-.034.026-.034s.03.013.03.03l.008.145q.07-.002.14-.004l-.007-.137c0-.017.012-.034.027-.034s.03.013.03.03l.008.137c.042 0 .083-.004.121-.004l-.007-.146c0-.017.011-.033.026-.033.016 0 .03.012.03.029l.008.146q.073-.002.141-.004l-.008-.155c0-.016.012-.033.027-.033s.03.013.03.03l.008.153q.09.001.171-.004l-.008-.158c0-.017.012-.033.027-.033s.03.012.03.029l.008.158h.22v-.175c0-.017.012-.033.03-.033q.03 0 .031.033v.175h.22l.008-.158c0-.017.015-.03.03-.03.016 0 .027.017.027.034l-.007.158q.08-.001.17.004l.008-.154c0-.016.015-.029.03-.029.016 0 .027.017.027.033l-.007.155q.066-.001.14.004l.008-.146c0-.017.015-.03.03-.03s.027.017.027.034l-.008.146c.042 0 .08.004.122.004l.007-.137c0-.017.016-.03.03-.03.016 0 .027.017.027.034l-.007.137c.045 0 .091.004.14.004l.008-.145c0-.017.015-.03.03-.03.016 0 .027.017.027.034l-.008.146q.064.002.122.004l.015-.134c.004-.016.015-.029.03-.029a.034.034 0 0 1 .027.034l-.015.129c.042.004.087.004.13.008l.014-.117c.004-.016.016-.029.03-.029a.034.034 0 0 1 .027.034l-.011.112c.046.004.087.004.133.008l.015-.145c.004-.017.015-.03.03-.03a.035.035 0 0 1 .027.034l-.015.141.148.013.015-.088c.004-.016.02-.029.035-.025.015.005.026.021.022.038l-.011.083q.075.006.148.017l.015-.108c.004-.017.02-.03.035-.025s.026.02.022.037l-.015.104c.046.004.091.013.133.017l.02-.113c.003-.016.018-.029.033-.025.016.005.027.021.023.038l-.019.108c.034.004.069.013.099.017l.019-.104c.004-.017.019-.03.034-.025s.027.02.023.037l-.019.104c.034.009.068.013.099.021l.026-.108a.027.027 0 0 1 .035-.02c.015.003.022.02.019.037l-.027.108q.05.013.095.03l.03-.105a.027.027 0 0 1 .035-.02c.015.003.022.02.019.037l-.03.108a.3.3 0 0 1 .132.087c.148-.22.27-.55.395-.895.16-.438.327-.888.563-1.13a.94.94 0 0 0-.6-.208m-.178.478.019-.062.011-.038q.007-.025.02-.058l.01-.02a.1.1 0 0 1 .016-.013c.004-.005.011-.005.015-.009.008-.004.011-.004.019-.004.019 0 .034.017.019.054q-.016.046-.038.084-.016.03-.027.062-.001.006-.003.013c-.004.012-.016.02-.023.029-.03.012-.057.008-.038-.038m-.148-.1a.05.05 0 0 1 .034-.037c.004 0 .011-.004.015-.004.019 0 .038.016.03.05-.015.054-.045.116-.057.15-.011.033-.045.016-.038-.03q.007-.036.008-.066c0-.021.004-.038.008-.063m-.092.096c-.007.046-.022.083-.03.13-.011.045-.038.037-.038-.005s.008-.087.011-.133c.004-.021.02-.038.035-.038s.026.013.022.046m-.908-.5c-.023.054-.05.092-.072.15-.023.054-.053.02-.042-.017.012-.037.023-.079.053-.158q.02-.043.038-.042c.023 0 .038.03.023.067m.255.196c-.023.05-.065.108-.084.142s-.053.012-.03-.034.03-.096.057-.158c.011-.025.026-.033.038-.033.026.008.042.041.019.083m-.21-.033q.013-.05.031-.117.012-.049.034-.042c.023.004.042.042.027.071-.023.046-.034.063-.053.113-.023.045-.046.008-.038-.025m.343.354c.023.004.045.029.015.066-.046.063-.091.105-.11.13-.015.025-.061.012-.03-.034.026-.05.068-.108.087-.146a.03.03 0 0 1 .026-.016c.008-.004.008-.004.012 0m-.084-.192q.019-.031.03-.033c.023-.004.027.062.008.091-.026.038-.064.084-.102.134-.03.041-.05.004-.03-.03.014-.037.045-.074.094-.162m-.566-.187c.011-.046.015-.071.042-.155.007-.029.026-.045.038-.05h.011c.015.005.027.025.015.05-.019.05-.045.105-.064.159-.02.05-.057.037-.042-.004m-.186.079c.007-.038.019-.1.045-.192.012-.042.03-.054.046-.05.019.004.034.038.023.075-.015.05-.042.1-.061.158-.027.059-.065.046-.053.009m-1.041-.238a1 1 0 0 0-.02.167c0 .046-.034.03-.037-.004a2 2 0 0 1-.008-.163c0-.025.008-.041.015-.05q.006-.005.012-.004h.011q.016.006.027.025c0 .013.003.02 0 .03m.201.404q.007-.037.03-.037h.008c.015.004.03.025.023.05-.012.05-.027.1-.034.15s-.061.05-.05.004c.004-.046.008-.1.023-.167m-.099-.22c.004-.03.02-.042.03-.042.023 0 .046.033.039.062-.012.05-.03.092-.046.155-.011.054-.05.029-.046-.009 0-.037.008-.087.023-.166m.764.125c.011-.055.011-.071.023-.13.007-.033.026-.054.045-.054h.008q.017.005.011.042c-.007.042-.034.125-.045.162-.012.038-.053.03-.042-.02m-1.09-.396q.001-.037.026-.042h.008c.019.004.038.025.038.046-.004.042-.012.092-.016.154-.003.063-.045.038-.049.004a.5.5 0 0 1-.008-.162m-.145-.034q.014-.03.038-.029c.023 0 .042.021.034.054-.007.042-.015.125-.023.18-.007.062-.041.045-.049 0v-.009c-.008-.041-.004-.075-.008-.158q.004-.026.008-.038m-.118-.029q.024 0 .038.03a.1.1 0 0 1 .008.037c-.004.083 0 .117-.008.158v.009c-.007.05-.042.062-.05 0-.007-.055-.014-.138-.022-.18-.004-.033.015-.054.034-.054m-.137.025h.008c.011 0 .023.013.027.042q.003.106-.004.162c-.004.038-.046.063-.05-.004-.003-.062-.015-.112-.015-.154-.004-.025.015-.046.034-.046m-.129.125c0 .063-.004.13-.007.163-.004.033-.038.05-.038.004 0-.054-.012-.113-.02-.167q-.003-.014.004-.029c.004-.012.016-.025.027-.025q.011-.004.023.004.01.013.011.05m-.3.367h.008q.017 0 .03.037c.015.067.019.121.027.167.007.046-.042.042-.05-.004-.007-.05-.023-.1-.034-.15-.011-.03 0-.05.019-.05m.11-.008c-.015-.063-.034-.105-.045-.155-.008-.029.015-.062.038-.062q.023-.002.03.042c.015.079.019.129.023.166s-.03.063-.046.009m-.813-.234h.008c.015 0 .038.021.045.054.012.059.012.075.023.13.011.054-.034.062-.046.02-.011-.037-.038-.12-.045-.162q0-.037.015-.042m-.186-.129c.015-.004.034.013.045.05.027.092.035.154.046.192.008.037-.027.05-.046-.009-.022-.058-.045-.104-.06-.158-.02-.037-.008-.07.015-.075m-.19-.037c.015-.005.038.008.05.05.026.083.03.108.041.154s-.027.058-.042.008c-.019-.054-.045-.108-.064-.158-.012-.03 0-.05.015-.054m-.414.183c.011 0 .03.008.038.033.026.063.034.113.057.159.022.045-.012.066-.03.033-.02-.033-.062-.096-.084-.142-.02-.05-.004-.083.019-.083m.16.062c-.02-.05-.035-.066-.054-.112-.011-.03.008-.067.027-.07.011 0 .026.007.034.04q.018.069.03.117c.008.038-.015.075-.038.025m.102-.25q.018 0 .038.042c.03.08.042.12.053.158s-.023.071-.042.017c-.023-.058-.05-.096-.072-.15-.015-.037 0-.067.023-.067m-.357.359q.012 0 .03.033c.05.088.08.125.099.158.019.034 0 .071-.03.03-.039-.05-.077-.096-.103-.134-.023-.025-.02-.091.004-.087m-.054.225q.026-.004.035.016c.019.038.06.096.087.146s-.015.059-.03.034c-.016-.025-.065-.067-.11-.13-.027-.041-.004-.062.018-.066m-.756-.013c.015.046-.007.05-.03.038a.06.06 0 0 1-.023-.03c0-.004-.004-.008-.004-.012-.007-.017-.019-.037-.026-.062q-.02-.046-.038-.084c-.016-.037-.004-.054.019-.054q.009-.001.019.004c.003 0 .011.004.015.009l.015.012q.006.008.011.02c.008.022.012.043.02.06l.01.037q-.005.024.012.062m.259-.05c.015 0 .034.017.034.038a1 1 0 0 1 .011.133c0 .042-.026.05-.038.004-.011-.046-.023-.083-.03-.129-.004-.033.007-.046.023-.046m-.114-.05c.003.025.007.042.007.063q.004.03.008.066c.007.05-.027.063-.038.03-.012-.034-.042-.096-.057-.15-.008-.034.007-.05.03-.05.004 0 .012 0 .015.004q.029.006.035.037m-.513.059a1 1 0 0 0-.118-.092c-.027-.02-.023-.054.007-.054q.017 0 .038.012c.065.034.088.071.114.104.023.034.008.071-.041.03m.16-.009a1 1 0 0 1-.1-.112c-.022-.034-.015-.084.008-.084q.017 0 .046.042c.03.05.053.083.068.117.015.029.008.07-.023.037m.622 1.171c-.068-.137-.209-.283-.368-.42a.1.1 0 0 0-.038-.03c-.012-.012-.023-.02-.038-.033h-.004l-.03-.025c-.008-.009-.02-.017-.027-.025-.019-.013-.034-.03-.053-.042-.046-.037-.034-.07.026-.054.008.004.02.004.027.008a.1.1 0 0 1 .027.017q.015.008.03.017c.023.016.05.029.084.029.022 0 .049 0 .045-.054-.004-.055-.068-.184-.121-.271l-.004-.004c-.02-.034-.015-.046 0-.046h.004q.017.001.041.02a2 2 0 0 1 .19.217q.013.015.02.03c.049.07.098.058.11.037a.3.3 0 0 0 .034-.1q.002-.01.004-.02.001-.008.003-.013c.012-.034.03-.046.042-.021q.007.013.008.033v.02c0 .063-.023.134-.042.238v.009q-.002.013-.004.033v.03c-.004.112.023.27.095.453.027.071-.023.046-.06-.033m1.144-.167a1.4 1.4 0 0 0-.083-.254c-.004-.012-.012-.02-.016-.029-.003-.012-.011-.02-.015-.033a1.2 1.2 0 0 0-.17-.246 2 2 0 0 0-.168-.17c-.046-.043-.011-.072.019-.047s.072.05.106.067c.035.017.061.008.069-.042.007-.05-.008-.162-.061-.375-.011-.037-.004-.066.011-.07h.008q.018 0 .03.045c.027.08.11.254.152.321s.092.038.122-.042c.046-.112.076-.045.046.025a.8.8 0 0 0-.057.284 2 2 0 0 0 .011.308q.013.122.03.254c.012.071-.022.063-.034.004m1.516 0c0 .059-.011.075-.034.075s-.03-.016-.03-.075q0-.142-.023-.254-.004-.017-.008-.029c-.003-.012-.003-.02-.007-.033a1.5 1.5 0 0 0-.21-.45q-.057-.094-.12-.188c-.062-.096-.024-.116.03-.075a.4.4 0 0 0 .098.071l.027.017c.046.029.099.041.133-.009a.5.5 0 0 0 .068-.187q.007-.038.008-.075c0-.025.004-.054.015-.067l.004-.004q.006-.002.011-.004.006-.001.012.004l.004.004c.011.013.015.042.015.067q.001.038.007.075c.016.08.046.15.069.187.034.05.087.038.133.009.011-.004.019-.013.026-.017.03-.02.057-.042.1-.07.049-.042.087-.017.03.074l-.122.188a1.4 1.4 0 0 0-.205.45q-.004.013-.008.033-.004.013-.007.03c-.004.078-.016.162-.016.253m1.452 0c-.011.059-.046.067-.038 0 .011-.087.023-.175.03-.254q-.001-.017.004-.029c0-.012 0-.02.004-.033q.011-.133.004-.246a.8.8 0 0 0-.057-.283c-.03-.071 0-.138.045-.025.03.075.084.104.122.041.042-.066.125-.241.152-.32.008-.03.023-.042.03-.046h.008c.011.004.019.029.011.07-.053.213-.068.321-.06.375.007.05.034.059.068.042a.6.6 0 0 0 .106-.067c.03-.025.065.005.02.046q-.09.083-.168.171c-.064.08-.121.158-.17.246q-.009.013-.016.033l-.015.03c-.03.074-.061.158-.08.25m1.702-.408c-.019.013-.034.03-.053.042l-.026.025q-.016.012-.03.025h-.005a.3.3 0 0 0-.038.033q-.015.013-.038.03c-.16.14-.3.287-.368.42-.038.075-.088.104-.061.033.072-.179.099-.337.095-.454v-.029c0-.012-.004-.02-.004-.033v-.009c-.019-.104-.038-.175-.042-.237v-.02c0-.018.004-.026.008-.034.011-.021.03-.013.042.02 0 .005.004.009.004.013q.002.008.003.02c.012.038.027.08.035.1.011.022.064.034.11-.037q.006-.01.019-.029.004-.006.007-.012c.057-.075.149-.175.183-.204q.023-.02.042-.021h.003c.016 0 .02.016 0 .046l-.003.004a.8.8 0 0 0-.122.27c-.004.055.019.055.046.055a.15.15 0 0 0 .083-.03c.008-.004.02-.012.03-.016l.027-.017q.01-.007.027-.008c.06-.017.072.017.026.054m.069-.596c-.03.03-.042-.008-.027-.041.015-.03.038-.063.069-.117q.028-.043.045-.042c.027 0 .034.05.008.084a.7.7 0 0 1-.095.116m.273-.087c-.034.029-.076.058-.117.091-.046.042-.065.005-.042-.033.026-.033.05-.07.114-.104a.1.1 0 0 1 .038-.013c.03.009.034.038.007.059M9.436 12.383c.057 0 .106-.05.106-.116 0-.067-.045-.117-.106-.117-.06 0-.106.05-.106.117 0 .066.049.116.106.116M9.322 12.575v.008q-.001.014.004.021.002.012.004.017a.12.12 0 0 0 .064.075c.008.004.015.004.023.008h.03a.1.1 0 0 0 .023-.008.11.11 0 0 0 .065-.075l.004-.017q.002-.013.003-.02v-.009q-.001-.017-.003-.03l-.012-.024a.11.11 0 0 0-.095-.059.12.12 0 0 0-.095.059l-.011.025c0 .008-.004.02-.004.029M9.394 13.054a.04.04 0 0 0 .023.004h.03q.012-.002.023-.004a.14.14 0 0 0 .088-.129.14.14 0 0 0-.088-.13q-.01-.004-.023-.003h-.03c-.008 0-.015.004-.023.004a.14.14 0 0 0-.087.129c0 .058.038.112.087.13M9.394 13.458a.04.04 0 0 0 .023.005h.03c.008 0 .016-.005.023-.005a.16.16 0 0 0 .107-.154c0-.07-.046-.137-.107-.154q-.01-.005-.023-.004h-.03c-.008 0-.015.004-.023.004a.16.16 0 0 0-.106.154c0 .071.045.133.106.154M9.394 13.9c.008 0 .015.004.023.004h.03q.012.001.023-.004a.18.18 0 0 0 .126-.175.18.18 0 0 0-.126-.175q-.01-.002-.023-.004h-.03q-.011-.001-.023.004a.18.18 0 0 0-.125.175.18.18 0 0 0 .125.175"/><path fill="#000" d="M13.335 14.508q-.171-.15-.365-.212a.245.245 0 0 0 .179-.242.26.26 0 0 0-.107-.212c.107-.021.19-.121.19-.246a.26.26 0 0 0-.144-.233.25.25 0 0 0 .152-.234c0-.129-.091-.237-.21-.246a.25.25 0 0 0 .096-.2c0-.137-.103-.245-.224-.245a.2.2 0 0 0-.054.008.26.26 0 0 0 .042-.142c0-.137-.102-.246-.224-.246a.2.2 0 0 0-.122.038q.007-.032.008-.063c0-.137-.103-.245-.224-.245a.22.22 0 0 0-.175.091c0-.133-.103-.246-.224-.246a.23.23 0 0 0-.205.146c-.03-.1-.114-.175-.217-.175-.11 0-.201.088-.22.2a.23.23 0 0 0-.21-.154c-.117 0-.212.1-.224.225a.23.23 0 0 0-.205-.146c-.125 0-.224.113-.224.246v.008a.22.22 0 0 0-.201-.137c-.122 0-.22.104-.225.237a.22.22 0 0 0-.197-.125h-.004a.5.5 0 0 0 .091-.291.48.48 0 0 0-.247-.43l.042-.087a.03.03 0 0 0 0-.037l-.148-.3a.18.18 0 0 0 .08-.084l.209.146.019.008a.03.03 0 0 0 .019-.008l.307-.217a.04.04 0 0 0 .02-.033c0-.012-.008-.03-.02-.033l-.307-.217q-.019-.012-.042 0l-.213.146a.2.2 0 0 0-.08-.075l.152-.309a.03.03 0 0 0 0-.037l-.197-.404c-.012-.03-.054-.03-.069 0l-.197.404a.03.03 0 0 0 0 .037l.152.309a.2.2 0 0 0-.08.075l-.213-.146q-.018-.012-.042 0l-.308.217a.04.04 0 0 0-.019.033c0 .012.008.03.02.033l.307.217q.01.007.02.008a.03.03 0 0 0 .018-.008l.21-.146a.23.23 0 0 0 .079.084l-.148.3a.03.03 0 0 0 0 .037l.042.088a.48.48 0 0 0-.247.429c0 .112.034.212.09.291h-.003c-.084 0-.16.05-.198.125-.003-.133-.102-.237-.224-.237a.23.23 0 0 0-.201.137v-.008c0-.137-.103-.246-.224-.246a.22.22 0 0 0-.206.146c-.011-.125-.106-.225-.224-.225a.225.225 0 0 0-.209.154c-.019-.112-.11-.2-.22-.2-.103 0-.186.071-.217.175a.22.22 0 0 0-.205-.146c-.122 0-.224.109-.224.246a.22.22 0 0 0-.175-.091c-.125 0-.224.112-.224.245q.001.032.007.063a.2.2 0 0 0-.121-.038c-.126 0-.224.113-.224.246q.001.08.041.142c-.019-.004-.034-.008-.053-.008-.125 0-.224.112-.224.245 0 .084.038.155.095.2-.118.009-.209.117-.209.246 0 .109.065.2.152.234a.25.25 0 0 0-.144.233c0 .12.083.225.19.246a.25.25 0 0 0-.107.212c0 .117.076.217.179.242-.126.042-.251.112-.365.212a.05.05 0 0 0-.015.034q0 .02.015.033c.24.217.41.68.574 1.13.137.37.266.72.433.953q.006.013.023.013c.121.258 1.41.479 2.873.479s2.755-.22 2.872-.48l.02-.012c.167-.229.296-.579.433-.954.163-.45.334-.912.573-1.129a.05.05 0 0 0 .016-.033c-.027-.017-.035-.03-.042-.034m-.646 1.159c-.126.345-.247.675-.395.896a.33.33 0 0 0-.133-.088l.03-.108c.004-.017-.004-.034-.019-.038a.027.027 0 0 0-.034.021l-.03.104q-.045-.014-.096-.029l.027-.108c.004-.017-.004-.034-.019-.038a.027.027 0 0 0-.034.021l-.027.108a1 1 0 0 0-.099-.02l.02-.105a.033.033 0 0 0-.023-.037c-.016-.004-.03.008-.035.025l-.019.104q-.046-.008-.098-.017l.019-.108a.033.033 0 0 0-.023-.038c-.015-.004-.03.009-.034.026l-.02.112a1 1 0 0 0-.132-.017l.015-.104a.03.03 0 0 0-.023-.037c-.015-.005-.03.008-.034.025l-.015.108q-.075-.008-.149-.017l.012-.083a.033.033 0 0 0-.023-.038c-.015-.004-.03.009-.034.025l-.015.088-.149-.012.016-.142a.027.027 0 0 0-.027-.034c-.015 0-.03.009-.03.03l-.016.146a1 1 0 0 0-.133-.009l.012-.112a.027.027 0 0 0-.027-.034c-.015 0-.03.009-.03.03l-.015.116c-.042-.004-.088-.004-.13-.008l.016-.13a.027.027 0 0 0-.027-.033c-.015 0-.03.009-.03.03l-.016.133c-.041 0-.083-.004-.121-.004l.007-.146c0-.017-.011-.034-.026-.034s-.03.013-.03.03l-.008.145q-.07-.002-.14-.004l.007-.137c0-.017-.012-.034-.027-.034s-.03.013-.03.03l-.008.137c-.042 0-.083-.004-.121-.004l.007-.146c0-.017-.011-.033-.026-.033-.016 0-.03.012-.03.029l-.008.146q-.073-.002-.141-.004l.008-.155c0-.016-.012-.033-.027-.033s-.03.013-.03.03l-.008.154q-.09.001-.171-.005l.008-.158c0-.017-.012-.033-.027-.033s-.03.012-.03.029l-.008.158h-.22v-.175c0-.016-.012-.033-.03-.033q-.03 0-.031.033v.175h-.22l-.008-.158c0-.017-.015-.03-.03-.03-.016 0-.027.017-.027.034l.007.158q-.08-.001-.17.005l-.008-.155c0-.016-.015-.029-.03-.029-.016 0-.027.017-.027.034l.007.154q-.066-.001-.14.004l-.008-.146c0-.017-.015-.03-.03-.03s-.027.017-.027.034l.008.146c-.042 0-.08.004-.122.004l-.007-.137c0-.017-.016-.03-.03-.03-.016 0-.027.017-.027.034l.007.137c-.045 0-.091.005-.14.005l-.008-.146c0-.017-.015-.03-.03-.03-.016 0-.027.017-.027.034l.008.146q-.064.002-.122.004l-.015-.134c-.004-.016-.015-.029-.03-.029a.035.035 0 0 0-.027.034l.015.129c-.042.004-.087.004-.13.008L8 16.163c-.004-.017-.016-.03-.03-.03a.035.035 0 0 0-.027.034l.011.112c-.046.004-.087.004-.133.009l-.015-.146c-.004-.017-.015-.03-.03-.03a.035.035 0 0 0-.027.034l.015.142-.148.012-.015-.088c-.004-.016-.02-.029-.035-.024a.033.033 0 0 0-.022.037l.011.083q-.075.006-.148.017l-.015-.108c-.004-.017-.02-.03-.035-.025a.03.03 0 0 0-.022.037l.015.104q-.07.01-.133.017l-.02-.113c-.003-.016-.018-.029-.033-.024a.033.033 0 0 0-.023.037l.019.108q-.053.01-.099.017l-.019-.104c-.004-.017-.019-.03-.034-.025a.033.033 0 0 0-.023.037l.019.104c-.034.009-.068.013-.099.021L6.88 16.3a.027.027 0 0 0-.035-.02c-.015.003-.022.02-.019.037l.027.108q-.05.013-.095.03l-.03-.105a.027.027 0 0 0-.035-.02c-.015.003-.022.02-.019.037l.03.108a.3.3 0 0 0-.132.087c-.148-.22-.27-.55-.395-.895-.16-.438-.323-.888-.559-1.125a.88.88 0 0 1 .635-.209c.015 0 .03.005.041.005h.008q.016.002.027.004.015.004.03.008.01.004.027.008.003-.001.007.005c.091.029.179.079.255.141l.007.008q.017.013.027.025l.038.042q.068.08.125.18a.3.3 0 0 1 .027.058.2.2 0 0 1 .019.046q.021.05.042.108c.007.02.026.033.045.025.02-.004.03-.025.03-.046-.026-.33.077-.612.225-.783l.011-.013.016-.017.03-.024.011-.013a.3.3 0 0 1 .122-.07c.008-.005.019-.005.03-.01l.012-.003q.009.001.019-.005.034-.005.068-.004a.4.4 0 0 1 .069.009h.003c.008 0 .02.004.027.004q.016.004.027.008a1 1 0 0 1 .136.054q.017.01.027.017c.011.004.019.013.03.017q.074.043.137.1.017.012.03.025a.2.2 0 0 1 .027.025c.02.016.034.033.053.05q.044.043.084.087l.03.034.023.024c.053.063.103.13.145.188.011.012.019.03.026.042l.023.037c.034.054.065.1.08.134a.04.04 0 0 0 .042.02c.015-.004.026-.02.03-.037q.012-.268.091-.442.013-.028.03-.058l.039-.063c.007-.012.015-.02.022-.033.008-.012.02-.02.027-.033a.69.69 0 0 1 .274-.18l.041-.012.042-.013q.01-.002.02-.004a1 1 0 0 1 .208-.025h.076c.069.005.14.009.21.025.007 0 .01.005.018.005l.042.012.042.012a.7.7 0 0 1 .243.15q.015.015.03.03c.012.012.02.02.027.033q.011.013.023.033.021.032.038.063.015.026.03.058c.053.117.088.258.091.442 0 .017.012.033.03.037a.04.04 0 0 0 .043-.02 1 1 0 0 1 .08-.134l.022-.037.027-.042a5 5 0 0 1 .144-.187l.023-.025c.008-.013.019-.021.03-.034a1 1 0 0 1 .137-.137c.008-.009.02-.017.027-.025q.012-.013.03-.025.069-.057.137-.1.013-.01.03-.017l.027-.017a.6.6 0 0 1 .137-.054c.007-.004.019-.004.026-.008q.012-.002.023-.004h.004q.035-.006.068-.005a.4.4 0 0 1 .084.009c.004 0 .008.004.011.004.012.004.02.004.03.008a.3.3 0 0 1 .122.071l.016.013.03.025q.007.005.015.016l.012.013c.148.167.254.454.224.779 0 .02.011.038.03.046.02.004.038-.008.046-.025a1 1 0 0 1 .042-.108q.009-.024.019-.046c.007-.021.019-.038.026-.059a.9.9 0 0 1 .164-.22c.007-.009.019-.017.026-.026l.008-.008a.7.7 0 0 1 .254-.141q.004.001.008-.005.01-.004.027-.008c.007-.004.019-.004.03-.008q.013-.006.027-.005h.007q.021-.005.042-.004.021-.002.042-.004a.88.88 0 0 1 .593.213c-.228.241-.392.691-.555 1.125M5.978 12.52c.084 0 .148.075.148.162s-.068.163-.148.163-.148-.075-.148-.163c0-.087.064-.162.148-.162m.24-.384c.083 0 .148.075.148.163 0 .087-.069.162-.149.162-.083 0-.148-.075-.148-.162s.065-.163.148-.163m.486-.108c0 .092-.069.163-.148.163-.084 0-.149-.075-.149-.163 0-.091.069-.162.149-.162.083 0 .148.075.148.162m.403-.15c0 .092-.069.163-.149.163-.083 0-.148-.075-.148-.163 0-.091.069-.162.148-.162.08 0 .149.07.149.162m.27-.191c.083 0 .148.074.148.162 0 .092-.069.162-.149.162-.083 0-.148-.075-.148-.162s.069-.162.148-.162m.58.212c0 .092-.068.162-.147.162-.084 0-.149-.074-.149-.162 0-.092.069-.162.149-.162s.148.07.148.162m.278-.088c.084 0 .148.075.148.163 0 .092-.068.162-.148.162s-.148-.075-.148-.162.068-.162.148-.162m.43.121c.083 0 .148.075.148.163 0 .087-.069.162-.148.162-.084 0-.149-.075-.149-.162s.065-.163.149-.163m.421.109c.084 0 .149.075.149.162s-.061.159-.141.163l-.046-.009h-.011a.16.16 0 0 1-.103-.154c.004-.087.069-.162.152-.162m-.011-.375q.001-.045.008-.088c.083-.012.167-.025.25-.029.016 0 .027-.013.027-.03v-.241q.034-.007.072-.008.04.001.072.008v.242c0 .016.012.029.027.029q.126.005.25.03.01.042.008.087 0 .036-.007.07a2.2 2.2 0 0 0-.707 0c.004-.024 0-.045 0-.07m.262-.984a.1.1 0 0 1-.011-.041v-.013q-.001-.012.004-.025c.003-.012.007-.029.015-.037a.15.15 0 0 1 .05-.05.1.1 0 0 1 .037-.009h.008q.021.002.038.009c.023.008.038.029.05.05a.2.2 0 0 1 .014.037c0 .009.004.017.004.025v.013q0 .024-.011.041a.13.13 0 0 1-.05.055l-.038.012h-.015a.06.06 0 0 1-.038-.012.1.1 0 0 1-.057-.055m-.528-.058.24-.167.205.142c0 .008-.004.017-.004.025v.017l-.205.141zm.627-.825.152.313-.152.308h-.008l-.152-.308zm.627.825-.24.167-.205-.142v-.017q0-.012-.003-.025l.205-.141zm-.627.208h.008l.144.3-.038.075a.4.4 0 0 0-.114-.016.5.5 0 0 0-.114.016l-.038-.075.144-.3zm.13.521V11.3a.1.1 0 0 0 .022.008c.08.042.144.113.179.204-.069-.008-.133-.016-.202-.02zm-.26-.054v.192q-.1.007-.2.02a.38.38 0 0 1 .178-.204q.011-.004.023-.008m.468.496a.36.36 0 0 1-.338.262.36.36 0 0 1-.338-.262q.338-.051.676 0m.16.412a.16.16 0 0 1-.103.155H9.82l-.046.008c-.076-.004-.14-.075-.14-.163 0-.091.068-.162.148-.162s.152.07.152.162m.422-.112c0 .091-.069.162-.149.162-.083 0-.148-.075-.148-.162s.069-.163.148-.163c.08 0 .149.071.149.163m.277-.284c.084 0 .148.075.148.163 0 .092-.068.162-.148.162s-.148-.075-.148-.162c-.004-.088.064-.162.148-.162m.43-.074c.083 0 .148.075.148.162 0 .092-.069.162-.149.162-.083 0-.148-.074-.148-.162 0-.092.065-.162.148-.162m.577.116c0 .092-.068.163-.148.163-.084 0-.148-.075-.148-.163 0-.091.068-.162.148-.162.083-.005.148.07.148.162m.274-.137c.083 0 .148.075.148.162 0 .092-.069.163-.148.163-.084 0-.149-.075-.149-.163a.15.15 0 0 1 .149-.162m.402.15c.084 0 .149.075.149.162 0 .092-.069.163-.149.163-.083 0-.148-.075-.148-.163-.004-.087.065-.162.148-.162m.487.437c0 .092-.069.163-.148.163-.084 0-.149-.075-.149-.163 0-.087.069-.162.149-.162.08-.005.148.07.148.162m-5.537-.167c.502 0 1.019.142 1.478.271.092.025.175.05.263.071v.063q.001.014-.004.029-.004.05-.008.1l-.152-.038q-.012-.004-.03-.008c-.008-.004-.02-.004-.027-.008l-.137-.038q-.016-.004-.026-.008c-.008 0-.015-.004-.02-.004q-.003.001-.007-.005l-.137-.037q-.012-.004-.03-.008-.007.001-.008-.005-.009-.002-.019-.004l-.144-.037q-.011-.002-.023-.004h-.004l-.155-.038c-.008-.004-.02-.004-.027-.008-.011 0-.019-.004-.03-.004-.008 0-.016-.005-.02-.005q-.055-.013-.117-.02c-.008 0-.02-.005-.03-.005-.008 0-.02-.004-.027-.004q-.069-.01-.137-.02c-.008 0-.019-.005-.027-.005q-.015.001-.03-.004a2 2 0 0 0-.137-.008h-.083q-.182 0-.335.033-.006-.001-.011.004-.09.02-.167.05c-.016.005-.027.013-.042.017a1 1 0 0 0-.156.088q-.021.014-.042.029a.7.7 0 0 0-.163.187q-.017.026-.03.05a1 1 0 0 0-.107.467 2.7 2.7 0 0 0 .137.825c.007.029.019.058.026.087a1 1 0 0 0 .027.071l.011.03q.006.013.012.033a.3.3 0 0 1 .019.05.4.4 0 0 0-.095-.05 1 1 0 0 0-.076-.03H6.41a.3.3 0 0 1-.053-.016c-.015-.004-.027-.004-.042-.009q-.023-.004-.045-.008a3.1 3.1 0 0 1-.152-.946c0-.57.402-1.17 1.147-1.17m4.336 0c.745 0 1.148.6 1.148 1.167 0 .35-.061.654-.152.946q-.023.001-.046.008c-.015.005-.027.005-.042.009a.3.3 0 0 0-.053.016h-.008q-.04.012-.076.03c-.034.012-.064.033-.095.05q.013-.026.02-.05l.01-.034q.007-.014.012-.029c.008-.025.02-.046.027-.07q.016-.046.026-.088c.012-.034.02-.063.03-.096.065-.234.107-.475.107-.73a1 1 0 0 0-.106-.466q-.014-.025-.03-.05l-.027-.042a.7.7 0 0 0-.137-.146q-.018-.017-.042-.029a1 1 0 0 0-.156-.087c-.011-.004-.026-.013-.041-.017a1 1 0 0 0-.168-.05q-.005.001-.011-.004a1.7 1.7 0 0 0-.334-.033h-.084q-.069.001-.137.008-.012-.001-.03.004c-.008 0-.02.004-.027.004a2 2 0 0 0-.137.021c-.007 0-.019.004-.026.004-.012 0-.02.005-.03.005q-.058.01-.118.02c-.008 0-.016.005-.02.005-.01 0-.018.004-.03.004a.1.1 0 0 0-.026.008l-.156.037h-.004c-.008 0-.015.005-.023.005l-.144.037q-.01.002-.02.004-.006-.001-.007.005-.012.004-.03.008l-.137.037q-.004-.001-.008.005c-.007 0-.015.004-.019.004q-.016.004-.026.008l-.137.038q-.016.004-.027.008-.012.004-.03.008l-.152.038q-.004-.05-.008-.1 0-.015-.003-.03v-.062c.083-.02.17-.046.262-.07.46-.122.976-.268 1.478-.268m-.16.288h.023c.034 0 .076 0 .114.004v1.588a.5.5 0 0 0-.137-.067zm.194 1.637v-1.624q.068.007.137.02v1.75l-.046-.046a.5.5 0 0 0-.09-.1m.772-1.054q.03.112.03.255 0 .188-.03.37zm-.057.905a4 4 0 0 1-.11.345c-.004 0-.004.005-.008.005a.1.1 0 0 0-.02.024v-1.616q.081.075.138.187zm-.194.42a.3.3 0 0 1-.084.025q-.03.001-.053-.004v-1.816q.075.035.137.083zm-.194.005a.6.6 0 0 1-.137-.084v-1.783q.068.018.137.041zm-.771-.392a2 2 0 0 0-.137.033v-1.504l.099-.025q.018-.002.038-.004zm-1.163-.196a2 2 0 0 1-.038-.183.6.6 0 0 1 .038-.321zm.057-.617q.004-.006.007-.012a1 1 0 0 1 .13-.159v1.109c-.004 0-.008-.004-.008-.004a.4.4 0 0 1-.13-.163zm.194-.229a1 1 0 0 1 .136-.112v1.329a.5.5 0 0 1-.136-.021zm.193-.154.137-.088v1.434q-.075.014-.137.02zm.194-.117q.068-.036.137-.066v1.479l-.137.037zm.194-.091a1 1 0 0 1 .137-.05v1.5l-.137.037zm-1.41 1.362h-.03q-.011.001-.023-.004a.18.18 0 0 1-.125-.175.18.18 0 0 1 .125-.175q.011-.002.023-.004h.03q.011-.001.023.004a.18.18 0 0 1 .125.175.18.18 0 0 1-.125.175q-.011.002-.023.004m.088-1.637c0 .062-.046.116-.107.116-.06 0-.106-.05-.106-.116 0-.067.045-.117.106-.117s.107.054.107.117m-.008.254.011.025q.005.014.004.029v.008q.001.014-.004.021-.002.012-.003.017a.12.12 0 0 1-.065.075c-.008.004-.015.004-.023.008h-.03q-.011-.001-.023-.008a.11.11 0 0 1-.065-.075l-.003-.017c0-.008-.004-.016-.004-.02v-.009c0-.012.004-.02.004-.03l.011-.024a.107.107 0 0 1 .19 0m.03.404a.13.13 0 0 1-.087.13q-.011.004-.023.003h-.03q-.011-.002-.023-.004a.14.14 0 0 1-.087-.129c0-.058.038-.113.087-.13q.011-.004.023-.003h.03q.011.002.023.004c.05.017.087.067.087.129m-.087.533q-.011.006-.023.005h-.03c-.008 0-.015-.005-.023-.005a.16.16 0 0 1-.106-.154c0-.07.045-.137.106-.154q.011-.005.023-.004h.03c.008 0 .015.004.023.004.06.02.106.083.106.154s-.041.133-.106.154m.08-1.046q-.017.001-.027.021-.008-.004-.015-.008a.2.2 0 0 0 .072-.092.2.2 0 0 0 .05.067zm-.27-.083c.011.038.038.071.072.092q-.007.004-.015.008-.008-.014-.027-.02l-.08-.017a.3.3 0 0 0 .05-.063m-1.41.163c.042.012.091.033.137.05v1.487l-.137-.037zm.965.754a.6.6 0 0 1 .038.32 2 2 0 0 1-.038.184zm-.771-.68q.069.03.137.067v1.45l-.137-.037zm.19.096q.069.038.137.088v1.367q-.063-.008-.137-.021zm.194.13q.075.056.137.112V14.1a.4.4 0 0 1-.137.02zm.194.166q.072.076.129.159.004.006.007.012v.767a.36.36 0 0 1-.129.162c-.004 0-.007.005-.007.005zm-.928-.508q.043.006.1.025v1.504c-.046-.012-.092-.02-.138-.033v-1.5q.02-.001.038.004m-.577 1.713c-.012.012-.027.029-.042.041v-1.75q.069-.014.137-.02v1.624q-.05.047-.095.104m-.68-.526a2.4 2.4 0 0 1-.03-.37q0-.143.03-.255zm.057-.783a.7.7 0 0 1 .136-.187v1.616q-.012-.012-.019-.025 0-.005-.007-.004a3 3 0 0 1-.11-.346zm.524 1.4a.6.6 0 0 1-.137.084v-1.825a1 1 0 0 1 .137-.042zm-.194.1q-.03.005-.053.004a.15.15 0 0 1-.084-.025v-1.712a1 1 0 0 1 .137-.084zm.445-1.925c.038-.004.08-.004.114-.004h.023v1.52a.4.4 0 0 0-.137.067zm.194 1.508V12.43q.067.001.136.008v1.5a.4.4 0 0 0-.136 0m1.352.126c.126-.392.187-.846.22-1.288 0-.013.005-.03.005-.042l.003-.041c.004-.038.004-.071.008-.109V12.5c0-.012 0-.03.004-.042v-.008l.011.004.114.021.057.013q-.002.024-.004.05l-.003.029c0 .008-.004.02-.004.029q-.01.1-.02.225-.01.145-.026.308c-.023.263-.057.55-.106.821a.7.7 0 0 0-.262.138c-.004.004-.008.004-.012.008a.1.1 0 0 0 .015-.034m.821-.934q-.016-.163-.026-.308-.01-.12-.02-.225l-.003-.03c0-.012-.004-.02-.004-.029 0-.016-.004-.033-.004-.05l.057-.012.114-.02.012-.005v.008c0 .013 0 .03.003.042v.083c.004.038.004.071.008.109 0 .012.004.029.004.041s.004.03.004.042c.034.442.095.896.22 1.287l.011.034q-.005-.004-.011-.008a.9.9 0 0 0-.258-.138 10 10 0 0 1-.107-.82m1.589-.691q.067-.008.136-.009v1.508a.5.5 0 0 0-.136 0zm-1.688-.28a.1.1 0 0 0-.026-.029l.038-.012zm-.228-.029a.1.1 0 0 0-.026.03l-.012-.042a.1.1 0 0 0 .038.012m3.591 2.088c-.083 0-.148-.075-.148-.163 0-.091.069-.162.148-.162.08 0 .149.075.149.162s-.065.163-.149.163m-.148-.354c.008-.05.02-.105.027-.159.019.042.05.075.083.1a.22.22 0 0 0-.11.059m.228-.105c-.083 0-.148-.075-.148-.162 0-.092.068-.163.148-.163s.148.075.148.163a.15.15 0 0 1-.148.162m-.178-.312c.003-.046.003-.096.003-.142v-.025q.04.058.103.084a.22.22 0 0 0-.106.083m.182-.15c-.084 0-.148-.075-.148-.163 0-.087.068-.162.148-.162.084 0 .148.075.148.162s-.064.163-.148.163m-.209-.258a2 2 0 0 0-.042-.155c.034.03.076.046.118.05a.26.26 0 0 0-.076.104m.095-.188c-.084 0-.148-.075-.148-.162s.068-.163.148-.163.148.075.148.162-.064.163-.148.163m-.224-.175c-.027-.046-.053-.092-.088-.138a.2.2 0 0 0 .126.005.26.26 0 0 0-.038.133m-.232-.304a1 1 0 0 0-.114-.096c.042 0 .08-.017.114-.037a.4.4 0 0 0-.008.062.14.14 0 0 0 .008.07m-.312-.209a.7.7 0 0 0-.136-.05.23.23 0 0 0 .098-.079c0 .05.016.092.038.13m-.505-.104a.23.23 0 0 0 .076-.104.25.25 0 0 0 .065.113c-.046-.009-.092-.009-.141-.009m-.247.009a2 2 0 0 0-.16.016.26.26 0 0 0 .069-.133.3.3 0 0 0 .091.117m-.414.054q-.087.013-.167.033a.23.23 0 0 0 .064-.15c.023.05.057.092.103.117m-.84.204q-.006.002-.011.004-.082.025-.156.042a.27.27 0 0 0 .057-.154q.035.076.11.108m-1.357.004c-.003 0-.007-.004-.011-.004a.22.22 0 0 0 .11-.108.27.27 0 0 0 .057.154c-.053-.013-.102-.03-.156-.042m-.855-.208a.25.25 0 0 0 .103-.117c.004.059.03.113.065.15a2 2 0 0 0-.168-.033m-.414-.054a.24.24 0 0 0 .091-.117.26.26 0 0 0 .069.133 2 2 0 0 0-.16-.016m-.247-.009q-.076.002-.144.009a.23.23 0 0 0 .064-.113q.035.062.08.104m-.368.055c-.046.012-.092.033-.137.05a.25.25 0 0 0 .034-.13q.046.056.103.08m-.331.166a1 1 0 0 0-.114.096q.01-.032.008-.07a.4.4 0 0 0-.008-.063q.051.03.114.037m-.33.271q.038 0 .072-.013-.046.063-.088.138a.24.24 0 0 0-.038-.13.2.2 0 0 0 .053.005m-.107.333q-.023.074-.042.155a.23.23 0 0 0-.076-.105.25.25 0 0 0 .118-.05m-.25.084c.083 0 .147.075.147.162s-.068.163-.148.163c-.083 0-.148-.075-.148-.163 0-.087.065-.162.148-.162m.182.312v.025q0 .074.003.142a.23.23 0 0 0-.102-.083.24.24 0 0 0 .099-.084m-.179.154c.084 0 .148.075.148.163 0 .091-.068.162-.148.162s-.148-.075-.148-.162c0-.092.068-.163.148-.163m.201.271c.008.054.016.104.027.159a.2.2 0 0 0-.11-.055.24.24 0 0 0 .083-.104m-.117.183c.083 0 .148.075.148.163 0 .092-.069.162-.148.162-.08 0-.149-.075-.149-.162a.15.15 0 0 1 .149-.163m6.737.359q.015-.053.03-.104a.2.2 0 0 0 .08.108q-.058-.005-.11-.004m-2.253-2.158c.026.054.068.1.121.125q-.088.023-.175.045a.25.25 0 0 0 .054-.158zm-1.938.166-.175-.046a.22.22 0 0 0 .121-.125v.009q.002.099.054.162m-2.337 1.888q.015.051.03.104c-.034 0-.072 0-.106.004a.24.24 0 0 0 .076-.108"/><path fill="#000" d="M12.594 15.296c-.008.004-.02.004-.027.008a.1.1 0 0 0-.026.017q-.016.008-.03.017a.14.14 0 0 1-.084.029c-.023 0-.05 0-.046-.055.004-.054.068-.183.122-.27l.003-.005c.02-.033.016-.045 0-.045h-.003q-.019.001-.042.02c-.034.03-.126.13-.183.205q-.003.006-.007.012a.1.1 0 0 0-.02.03c-.049.07-.098.058-.11.037a.3.3 0 0 1-.034-.1q-.001-.01-.003-.021c0-.004-.004-.008-.004-.013-.012-.033-.03-.045-.042-.02a.1.1 0 0 0-.008.033v.02c0 .063.023.134.042.238v.009q.002.013.004.033v.03c.004.112-.023.27-.095.453-.027.071.023.046.06-.033.07-.138.21-.283.37-.42a.1.1 0 0 1 .037-.03c.012-.012.023-.02.038-.033h.004q.013-.013.03-.025c.008-.009.02-.017.027-.025.02-.013.034-.03.053-.042.046-.033.035-.067-.026-.054M5.951 14.63a.1.1 0 0 0-.038-.013c-.03 0-.03.033-.007.054q.053.043.118.091c.045.042.064.005.041-.033-.026-.029-.049-.062-.114-.1M6.305 14.742q.016.03.026.062c0 .004.004.008.004.013.004.012.015.02.023.029.023.017.046.008.03-.038l-.019-.062-.011-.038q-.006-.025-.019-.058l-.011-.02a.1.1 0 0 0-.016-.013c-.003-.005-.011-.005-.015-.009q-.009-.005-.019-.004c-.019 0-.034.017-.019.054.02.03.03.059.046.084M6.138 14.604q-.03-.042-.046-.041c-.027 0-.034.05-.008.083.035.05.057.075.1.112.03.03.041-.008.026-.041-.02-.03-.042-.063-.072-.113M6.772 15.508v-.029c0-.012.004-.02.004-.033v-.008c.019-.105.038-.176.042-.238v-.02c0-.018-.004-.026-.008-.034-.011-.021-.03-.013-.042.02q-.002.007-.003.013-.002.007-.004.021l-.034.1c-.012.02-.065.033-.11-.038q-.007-.01-.02-.029-.006-.006-.007-.012a2 2 0 0 0-.183-.204q-.024-.02-.041-.021h-.004c-.015 0-.02.016 0 .046l.004.004a.8.8 0 0 1 .121.27c.004.055-.019.055-.045.055a.15.15 0 0 1-.084-.03c-.008-.003-.019-.012-.03-.016l-.027-.017q-.01-.007-.027-.008c-.064-.017-.072.02-.026.054.019.013.034.03.053.042l.027.025.03.025h.004q.018.013.038.033.016.015.038.03c.16.141.3.287.368.42.038.075.088.104.061.034a1.2 1.2 0 0 1-.095-.455M12.845 14.767a1 1 0 0 1 .117-.092c.027-.02.023-.054-.007-.054a.1.1 0 0 0-.038.012c-.065.034-.088.071-.114.105-.023.033-.004.07.042.029M12.689 14.758a1 1 0 0 0 .099-.112c.022-.034.015-.084-.008-.084q-.017 0-.046.042c-.03.05-.053.084-.068.117-.019.029-.011.07.023.037M9.25 14.358q.007-.056.004-.162c0-.025-.012-.038-.027-.042h-.008c-.019.004-.038.025-.038.046.004.042.012.092.016.154.007.067.049.042.053.004M9.345 14.37c.007.063.042.047.05 0v-.007c.007-.042.003-.075.007-.159a.1.1 0 0 0-.008-.037c-.007-.021-.023-.03-.038-.03-.023 0-.042.021-.034.055.008.041.015.12.023.179M7.939 14.513c.023.058.057.045.045.008-.007-.038-.019-.1-.045-.192-.012-.042-.03-.054-.046-.05-.019.004-.034.038-.023.075.023.054.05.1.069.159M7.76 14.45c.015.05.053.033.042-.008-.011-.046-.015-.071-.042-.155-.011-.041-.034-.054-.05-.05-.014.005-.026.025-.014.05.019.055.045.109.064.163M7.49 14.467q-.012-.05-.03-.117-.012-.049-.034-.042c-.023.005-.042.042-.027.071.023.046.034.063.053.113.027.045.05.008.038-.025M7.338 14.454c-.011-.025-.026-.033-.038-.033-.022 0-.038.033-.015.075.023.05.065.108.084.141.019.034.053.013.03-.033-.026-.037-.034-.087-.06-.15M8.824 14.688q-.007-.039-.03-.038h-.008c-.015.004-.03.025-.023.05.012.05.027.1.035.15.007.05.06.05.049.004-.004-.046-.008-.1-.023-.166M8.893 14.425c-.023 0-.046.033-.038.063.011.05.03.091.045.154.012.054.05.029.046-.009-.004-.037-.008-.087-.023-.166q-.007-.044-.03-.042M8.14 14.463c-.007-.034-.026-.055-.045-.055h-.008q-.017.006-.011.042c.007.042.034.125.045.163.012.037.053.029.046-.021-.015-.055-.015-.071-.027-.13M9.048 14.45c0 .046.035.03.038-.004.004-.034.008-.1.008-.163q0-.037-.015-.05-.011-.011-.023-.004-.016.007-.027.025-.004.011-.003.03a1 1 0 0 1 .022.166M7.608 14.45c.023.054.053.02.042-.017s-.023-.079-.053-.158q-.02-.043-.038-.042c-.023 0-.034.03-.023.067.023.058.05.092.072.15M7.186 14.838c-.007-.013-.022-.021-.034-.017-.023.004-.045.029-.015.066.046.063.091.105.11.13.015.025.061.012.03-.034-.03-.05-.075-.112-.09-.146M7.232 14.63q-.018-.034-.03-.034c-.023-.004-.027.062-.008.091.027.038.065.084.103.134.03.042.049.004.03-.03-.015-.037-.042-.074-.095-.162M7.958 14.892c-.03.075-.084.104-.122.041a2 2 0 0 1-.152-.32c-.007-.03-.023-.042-.03-.046h-.008c-.011.004-.019.029-.011.07.053.213.068.321.06.375-.007.05-.034.059-.068.042a.6.6 0 0 1-.106-.066c-.03-.025-.065.004-.02.045.062.055.115.113.168.171.065.08.122.159.171.246q.007.013.015.033c.004.009.012.021.015.03q.056.117.084.254c.011.058.046.066.038 0q-.018-.134-.03-.255.001-.017-.004-.029c0-.012 0-.02-.004-.033a2 2 0 0 1-.004-.246.8.8 0 0 1 .057-.283c.027-.075-.004-.142-.05-.03M6.518 14.867c.011.033.045.016.038-.03q-.007-.035-.008-.066c-.004-.017-.004-.038-.008-.063a.05.05 0 0 0-.034-.037q-.007-.002-.015-.004c-.019 0-.038.016-.03.05.015.058.045.116.057.15M6.662 14.933c.011.046.038.038.038-.004s-.008-.087-.011-.133c-.004-.021-.02-.038-.035-.038s-.026.013-.022.046q.012.068.03.13M9.478 14.367c.007.05.042.062.05 0 .007-.055.014-.138.022-.18.004-.037-.015-.058-.034-.054q-.024 0-.038.03a.1.1 0 0 0-.008.037c.004.083 0 .117.008.158q-.006.008 0 .009M9.672 14.358c.003-.062.015-.112.015-.154 0-.02-.02-.046-.038-.046H9.64c-.011 0-.023.013-.026.042-.004.07 0 .125.003.163.008.033.05.058.054-.005M12.51 14.846a.06.06 0 0 0 .023-.03c0-.004.004-.008.004-.012.007-.017.019-.037.026-.062q.02-.046.038-.084c.016-.037.004-.054-.019-.054q-.009-.001-.019.004c-.003 0-.011.005-.015.009l-.015.012q-.006.007-.011.021c-.008.02-.012.042-.02.058l-.01.038c-.005.02-.012.037-.02.062-.011.046.015.05.038.038M11.72 14.82h-.008c-.011 0-.019.01-.026.018-.02.037-.061.095-.088.145s.015.059.03.034c.016-.025.065-.067.11-.13.027-.041.005-.062-.018-.066M11.667 14.596q-.013 0-.03.033c-.05.088-.08.125-.1.159-.019.033 0 .07.03.029.039-.05.077-.096.103-.134.023-.025.023-.091-.003-.087M11.572 14.425c-.012 0-.03.008-.038.033-.027.063-.035.113-.057.159-.023.045.011.066.03.033s.06-.096.084-.142c.019-.05.003-.083-.02-.083M9.824 14.45c0-.054.011-.112.019-.167q.003-.014-.004-.029c-.004-.012-.015-.025-.027-.025h-.011q-.006.002-.012.004c-.007.009-.015.025-.015.05 0 .063.004.13.008.163s.042.05.042.004M11.442 14.308c-.011 0-.026.009-.034.042q-.018.067-.03.117c-.008.033.015.07.034.02s.034-.066.053-.112c.015-.025-.004-.062-.023-.067M11.112 14.45c.019-.054.045-.108.064-.158.008-.025 0-.046-.015-.05h-.011c-.012.004-.03.016-.038.05-.027.083-.03.108-.042.154-.015.037.023.05.042.004M10.082 14.65h-.008q-.017 0-.03.037c-.015.067-.019.121-.027.167-.007.046.042.042.05-.004.007-.05.023-.1.034-.15.011-.03-.004-.05-.019-.05M9.976 14.425q-.025-.001-.03.042c-.016.079-.02.129-.024.166-.003.038.035.063.046.009.015-.063.034-.104.046-.154.007-.03-.016-.063-.038-.063M11.264 14.45c.023-.058.05-.096.072-.15.015-.033 0-.067-.023-.067q-.018 0-.038.042c-.03.08-.042.12-.053.158s.019.071.042.017M9.805 14.73a.4.4 0 0 1-.1.07l-.026.017c-.045.029-.099.041-.133-.009a.5.5 0 0 1-.068-.187 1 1 0 0 1-.008-.075c0-.025-.004-.054-.015-.067l-.004-.004q-.005-.002-.011-.004-.006-.001-.012.004l-.003.004c-.012.013-.016.042-.016.067q0 .038-.007.075a.6.6 0 0 1-.069.187c-.034.05-.087.038-.133.009q-.016-.01-.026-.017c-.03-.02-.057-.042-.099-.07-.05-.043-.087-.018-.03.074l.121.188c.088.133.164.275.21.45q.003.013.007.033.004.013.007.03.023.117.023.253c0 .059.008.075.03.075.023 0 .035-.016.035-.075q0-.142.023-.254.003-.017.007-.029c.004-.012.004-.02.008-.033.042-.175.121-.317.205-.45q.058-.094.122-.188c.049-.091.011-.112-.038-.075M11.351 14.983a.6.6 0 0 1-.106.067c-.034.017-.061.008-.069-.042-.007-.05.008-.162.061-.375.012-.037.004-.066-.011-.07h-.008q-.018 0-.03.045c-.027.08-.11.255-.152.321-.042.067-.091.038-.122-.042-.045-.112-.076-.045-.045.025.034.075.049.171.057.284q.005.113-.004.246.001.013-.004.033.001.013-.004.03c-.007.078-.019.166-.03.253-.008.067.023.059.038 0a1.4 1.4 0 0 1 .083-.254c.004-.012.012-.02.016-.029.003-.012.011-.02.015-.033q.068-.133.17-.246a2 2 0 0 1 .168-.171c.042-.037.008-.067-.023-.042M10.781 14.408h-.007c-.016 0-.038.021-.046.055-.011.058-.011.075-.023.129-.011.054.034.062.046.02.011-.037.038-.12.045-.162q.005-.036-.015-.042M10.93 14.513c.022-.059.045-.105.06-.159.012-.041 0-.07-.023-.075-.015-.004-.034.013-.045.05-.027.092-.034.154-.046.192-.004.037.034.05.053-.009M12.354 14.867c.012-.034.042-.096.057-.15.008-.034-.007-.05-.03-.05q-.008-.001-.015.004a.05.05 0 0 0-.034.037c-.004.025-.008.042-.008.063q-.004.03-.008.066c-.007.05.027.067.038.03M12.206 14.933c.012-.046.023-.083.03-.129.008-.033-.007-.046-.022-.046s-.034.017-.034.038a1 1 0 0 0-.012.133c0 .042.03.05.038.004"/></g><defs><clipPath><path fill="#fff" d="M1 7.5h38v25H1z"/></clipPath></defs></svg>