<svg xmlns="http://www.w3.org/2000/svg" width="40" height="40" fill="none" viewBox="0 0 40 40"><g clip-path="url(#a)"><path fill="#012169" d="M15.664 25.05 1 32.383v6.628h14.664zM15.664 14.896V1H1v6.564zM1 13.383v2.255h4.51zM24.336 14.896 39 7.564V1H24.336zM39 26.564v-2.255h-4.51zM39 15.638v-2.255l-4.51 2.255zM1 24.31v2.254l4.51-2.255zM24.336 25.05v13.961H39v-6.628z"/><path fill="#fff" d="M24.795 15.638 39 8.535v-.971l-14.664 7.332V1H22.6v16.372H39v-1.734h-4.51L39 13.383v-2.91l-10.329 5.165zM10.921 17.372h6.478V1h-1.735v13.896L1 7.564v2.91l10.328 5.164H7.452L1 12.412v.97l4.51 2.256H1v1.734h9.921M29.079 22.575h-6.478V39.01h1.735v-13.96L39 32.383v-2.91L28.671 24.31h3.877L39 27.535v-.971l-4.51-2.255H39v-1.734h-9.921M17.399 23.212v-.637H1v1.734h4.51L1 26.564v2.91l10.328-5.165h3.877L1 31.412v.97l14.664-7.331v13.96H17.4V23.212"/><path fill="#C8102E" d="M24.795 15.638h3.876L39 10.474V8.535zM28.671 24.31 39 29.473v-1.939l-6.452-3.226zM11.328 15.638 1 10.474v1.938l6.452 3.225zM11.328 24.31 1 29.473v1.938l14.205-7.103z"/><path fill="#C8102E" d="M29.079 17.372h-6.478V1H17.4v16.372H1v5.203h16.399V39.01H22.6V22.575H39v-5.203h-9.921"/></g><defs><clipPath><path fill="#fff" d="M1 1h38v38.011H1z"/></clipPath></defs></svg>