<svg xmlns="http://www.w3.org/2000/svg" width="40" height="40" fill="none" viewBox="0 0 40 40"><g fill-rule="evenodd" clip-path="url(#a)" clip-rule="evenodd"><path fill="#012169" d="M16.833 32.483v-7.62L5.25 32.483zM16.833 15.104v-7.62H5.25zM1 10.28v5.537h8.417zM23.167 7.483v7.621l11.583-7.62zM39 29.688V24.15h-8.417zM30.583 15.817H39v-5.538zM1 24.15v5.538l8.417-5.538zM23.167 32.483H34.75l-11.583-7.62z"/><path fill="#fff" d="M26.333 15.817h-2.83l12.666-8.334H34.75l-11.583 7.621v-7.62H21.9v9.999H39v-1.666h-8.417L39 10.279V7.483zM16.833 15.104 5.25 7.484H1l12.667 8.333h-2.831L1 9.346v.933l8.417 5.538H1v1.666h17.099999999999998v-10h-1.267zM26.631 22.483H21.9v10h1.267v-7.62l11.583 7.62H39L26.333 24.15h2.831L39 30.62v-.933l-8.417-5.537H39v-1.667H26.631M13.369 22.483H1v1.667h8.417L1 29.688v2.795l12.667-8.333h2.83L3.832 32.483H5.25l11.583-7.62v7.62H18.1v-10h-4.731"/><path fill="#C8102E" d="M39 7.483h-2.831l-12.667 8.334h2.831zM26.333 24.15 39 32.483v-1.862l-9.836-6.471zM13.667 15.817 1 7.483v1.863l9.836 6.47zM1 32.483h2.831l12.667-8.333h-2.831z"/><path fill="#C8102E" d="M26.631 17.483H21.9v-10h-3.8v10H1v5h17.1v10h3.8v-10H39v-5H26.631"/></g><defs><clipPath><path fill="#fff" d="M1 7.5h38v25H1z"/></clipPath></defs></svg>