<?xml version="1.0" encoding="utf-8"?>
<!-- Generator: Adobe Illustrator 21.0.2, SVG Export Plug-In . SVG Version: 6.00 Build 0)  -->
<svg version="1.1" id="Layer_1" xmlns="http://www.w3.org/2000/svg" xmlns:xlink="http://www.w3.org/1999/xlink" x="0px" y="0px"
	 viewBox="0 0 2208 1242" style="enable-background:new 0 0 2208 1242;" xml:space="preserve">
<style type="text/css">
	.st0{fill:#13509D;}
	.st1{fill:#F9E92D;}
</style>
<path class="st0" d="M0,0h299.4v200.8H0L0,0z"/>
<path class="st1" d="M152.8,28.5h10.6l-8.6,6.6l3.3,10.3l-8.3-6.3l-8.3,6.3l3.3-10.3l-8.6-6.6h10.3l3.3-10.3L152.8,28.5z
	 M153.2,162.4h10.6l-8.3,6.3l3,9.9l-8.3-6l-8.3,6l3.3-9.9l-8.6-6.3h10.6l3-9.9L153.2,162.4z M186.3,153.5h10.6l-8.6,6.3l3.3,10.3
	l-8.3-6.3l-8.3,6.3l3.3-10.3l-8.6-6.3H180l3.3-9.6L186.3,153.5z M186.3,37.4h10.6l-8.6,6.3l3.3,9.9l-8.3-6l-8.3,6l3.3-9.9l-8.6-6.3
	H180l3.3-9.9L186.3,37.4z M210.7,61.9h10.6l-8.6,6.3l3.3,10.3l-8.3-6.3l-8.3,6.3l3.3-10.3l-8.6-6.3h10.6l3-9.6L210.7,61.9z
	 M210.7,129.4h10.6l-8.6,6.3l3.3,9.9l-8.3-6l-8.3,6l3.3-9.9l-8.6-6.3h10.6l3-9.9L210.7,129.4z M220,95.3h10.6l-8.6,6.3l3.3,9.9
	l-8.3-6.3l-8.3,6.3l3.3-9.9l-8.6-6.3h10.3l3.3-9.9L220,95.3z M119.1,37.4h10.6l-8.3,6.3l3,10.3l-8.3-6.3l-8.3,6.3l3.3-10.3l-8.6-6.3
	h10.6l3-9.6L119.1,37.4z M95.3,62.2h10.6l-8.3,6.3l3,9.9l-8.3-6.3L84,78.4l3.3-9.9l-8.6-6.3h10.6l3-9.9L95.3,62.2z M86.7,95.3h10.3
	l-8.3,6.3l3.3,9.9l-8.6-6l-8.3,6l3.3-9.9l-8.6-6.3h10.6l3-9.9L86.7,95.3z M95.3,129.4h10.6l-8.3,6.3l3,10.3l-8.3-6.3l-8.3,6.3
	l3.3-10.3l-8.6-6.3h10.6l3-9.6L95.3,129.4z M119.8,153.5H130l-8.3,6.6l3,9.9l-8.3-6.3l-8.3,6.3l3.3-9.9l-8.6-6.6h10.6l3-9.6
	L119.8,153.5z"/>
</svg>
