<svg xmlns="http://www.w3.org/2000/svg" width="48" height="48" viewBox="0 0 48 48"><path d="M24 3C12.39 3 3 12.39 3 24s9.39 21 21 21 21-9.39 21-21S35.61 3 24 3m18.24 19.65h-9.39c-.21-8.34-2.28-13.41-4.26-16.35 7.47 1.92 13.08 8.43 13.65 16.35M24.6 5.73c1.89 1.71 5.28 6.27 5.55 16.92h-12.3C18.12 12 21.51 7.44 23.4 5.73c.21 0 .39-.03.6-.03h.6zm-5.19.57c-1.98 2.94-4.05 7.98-4.26 16.35H5.76c.57-7.89 6.18-14.4 13.62-16.35zM5.76 25.35h9.36c.21 8.34 2.31 13.41 4.32 16.35-7.47-1.92-13.11-8.43-13.71-16.35zm17.7 16.92c-1.92-1.71-5.37-6.3-5.64-16.92h12.3C29.85 36 26.4 40.56 24.48 42.27h-1.02m5.04-.57c2.01-2.94 4.11-8.01 4.32-16.35h9.39c-.57 7.92-6.24 14.46-13.71 16.35"/></svg>