<svg xmlns="http://www.w3.org/2000/svg" width="48" height="48" viewBox="0 0 48 48"><path fill-rule="evenodd" d="M25.5 33V21h-6v3h3v9H18v3h12v-3zM22.74 12.39c.39-.27.81-.39 1.26-.39.6 0 1.17.24 1.59.66s.66.99.66 1.59a2.309 2.309 0 0 1-1.41 2.1c-.39.15-.84.21-1.29.12-.42-.09-.84-.33-1.14-.63-.33-.3-.54-.69-.63-1.14-.09-.42-.06-.87.12-1.29s.48-.78.84-1.02"/><path fill-rule="evenodd" d="M42 3H6C4.35 3 3 4.35 3 6v36c0 1.65 1.35 3 3 3h36c1.65 0 3-1.35 3-3V6c0-1.65-1.35-3-3-3m0 39H6V6h36z" clip-rule="evenodd"/></svg>