<svg xmlns="http://www.w3.org/2000/svg" width="48" height="48" viewBox="0 0 48 48"><path fill-rule="evenodd" d="M14.97 19.5c0-4.14 3.36-7.5 7.5-7.5s7.5 3.36 7.5 7.5-3.36 7.5-7.5 7.5-7.5-3.36-7.5-7.5m12 0c0-2.49-2.01-4.5-4.5-4.5s-4.5 2.01-4.5 4.5 2.01 4.5 4.5 4.5 4.5-2.01 4.5-4.5" clip-rule="evenodd"/><path fill-rule="evenodd" d="M10.83 7.83C13.92 4.74 18.12 3 22.5 3s8.58 1.74 11.67 4.83S39 15.12 39 19.5a16.4 16.4 0 0 1-3.33 9.9l-.51.66L22.5 45 9.84 30.09c-.06-.09-.51-.69-.51-.69A16.4 16.4 0 0 1 6 19.5c0-4.38 1.74-8.58 4.83-11.67m21.18 2.13A13.41 13.41 0 0 0 22.485 6a13.41 13.41 0 0 0-9.525 3.96A13.41 13.41 0 0 0 9 19.5c-.03 2.88.96 5.76 2.7 8.07l.45.6 10.32 12.18 10.38-12.24c.03-.06.36-.48.36-.48l.06-.06a13.46 13.46 0 0 0 2.7-8.07c0-3.6-1.41-6.99-3.96-9.54" clip-rule="evenodd"/></svg>