<svg xmlns="http://www.w3.org/2000/svg" width="48" height="48" viewBox="0 0 48 48"><path fill-rule="evenodd" d="M44.16 19.099c-.599-.69-1.468-1.11-2.368-1.11h-2.788L29.561 3l-2.548 1.589 8.454 13.4H12.623l8.424-13.4L18.5 3 9.056 18.02H6.298c-.9 0-1.77.389-2.399 1.108-.69.78-.989 1.83-.87 2.878l2.729 19.966C5.968 43.711 7.377 45 8.996 45h29.948c1.65 0 3.058-1.32 3.298-3.058l2.728-19.966c.12-1.049-.18-2.098-.87-2.877zm-4.856 22.424c-.03.3-.21.45-.33.45H9.056s-.24-.15-.27-.42L6.058 21.587c0-.24.06-.42.27-.6l35.584.09s.18.21.12.51z" clip-rule="evenodd"/></svg>