<svg xmlns="http://www.w3.org/2000/svg" width="40" height="40" fill="none" viewBox="0 0 40 40"><g clip-path="url(#a)"><path fill="#fff" d="M1 7.5h38v25H1z"/><path fill="#0038B8" d="M1 9.844h38v3.906H1zM1 26.25h38v3.906H1zM20 25.413l-1.727-2.707h-3.455L16.545 20l-1.727-2.706h3.455L20 14.588l1.727 2.706h3.455L23.455 20l1.727 2.706h-3.455zm-.629-2.707.629.988.629-.988zm2.906-.86h1.26l-.628-.987zm-3.455 0h2.356L22.356 20l-1.178-1.847h-2.356L17.644 20zm-2.36 0h1.261l-.628-.987zm5.814-3.693.63.988.628-.988zm-5.814 0 .63.988.628-.988zm2.91-.86h1.26L20 16.307z"/></g><defs><clipPath><path fill="#fff" d="M1 7.5h38v25H1z"/></clipPath></defs></svg>