<svg xmlns="http://www.w3.org/2000/svg" width="40" height="40" fill="none" viewBox="0 0 40 40"><g clip-path="url(#a)"><path fill="#002B7F" d="M39 1H1v38h38z"/><path fill="#CE1126" d="M39 20H1v19h38z"/><path fill="#FFD83D" d="M10.184 11.266v-2.71q-.105.027-.208.063v2.774a1 1 0 0 0 .208-.127M12.916 10.5q.033-.125.058-.279a.9.9 0 0 0-.058-.487zM9.3 9.373c-.029.114-.046.24-.046.386q.001.287.046.564zM11.449 10.867l.208.057v-2.26a1.4 1.4 0 0 0-.208-.077zM10.565 8.492V10.9a.8.8 0 0 1 .208-.101V8.486h-.035c-.057 0-.115.006-.173.006M11.743 10.95l.208.057V8.803a3 3 0 0 0-.208-.102zM10.334 11.127q.067-.086.144-.152v-2.47q-.104.01-.207.032v2.66zM12.621 9.297v1.684c.006 0 .012-.006.012-.006a.63.63 0 0 0 .196-.247V9.563c-.006-.007-.006-.013-.011-.02a1.5 1.5 0 0 0-.197-.246M12.327 11.064a.7.7 0 0 0 .208-.032V9.214a1.4 1.4 0 0 0-.208-.17zM9.387 10.747q.07.267.167.526c.006 0 .006.006.012.006q.018.019.029.038V8.86q-.121.113-.208.285zM10.86 10.785a1 1 0 0 1 .208 0v-2.28a2 2 0 0 0-.208-.013zM11.154 10.798q.105.02.208.05V8.562q-.08-.019-.15-.038c-.017 0-.04-.006-.058-.006zM12.24 11.057V8.98l-.208-.133v2.179c.075.019.145.025.208.031M9.808 11.425q.046.002.081-.007V8.657a1.2 1.2 0 0 0-.208.127v2.603q.059.028.127.038M13.066 8.157c0 .107.07.202.156.234h.017l.07.013c.115-.007.213-.114.213-.247 0-.14-.104-.247-.225-.247s-.23.107-.23.247M12.65 8.239c.127 0 .226-.114.226-.247s-.104-.247-.226-.247c-.127 0-.225.114-.225.247s.098.247.225.247M11.998 8.055c.127 0 .225-.114.225-.247 0-.139-.104-.247-.226-.247-.12 0-.225.114-.225.247 0 .14.104.247.226.247M11.345 7.935c.127 0 .225-.114.225-.247 0-.14-.104-.247-.225-.247-.127 0-.226.114-.226.247 0 .14.104.247.226.247M10.692 7.865c.127 0 .225-.114.225-.247 0-.139-.104-.247-.225-.247-.127 0-.225.114-.225.247 0 .14.104.247.225.247M10.051 7.91c.127 0 .225-.114.225-.247 0-.14-.104-.247-.225-.247-.127 0-.225.114-.225.247s.104.247.225.247M9.445 8.138c.127 0 .225-.114.225-.247 0-.14-.104-.247-.225-.247-.128 0-.226.114-.226.247-.006.133.098.247.226.247M8.93 8.55c.128 0 .226-.115.226-.248s-.104-.247-.226-.247c-.127 0-.225.114-.225.247s.098.247.225.247M8.567 9.126c.124 0 .225-.11.225-.247s-.101-.247-.225-.247c-.125 0-.226.11-.226.247 0 .136.101.247.226.247M8.388 9.81c.127 0 .225-.114.225-.247s-.104-.247-.226-.247c-.127 0-.225.114-.225.247s.098.247.225.247M8.624 10.266c0-.14-.104-.247-.225-.247s-.225.114-.225.247c0 .139.104.247.225.247s.225-.108.225-.247M8.52 11.21c.127 0 .226-.115.226-.248 0-.139-.104-.247-.226-.247-.12 0-.225.114-.225.247-.006.133.098.247.225.247"/><path fill="#FFD83D" d="M12.876 8.79c.011.006.028.006.046.013l.23.057c.007-.051.007-.102.012-.152 0-.013 0-.032.006-.045V8.57q-.19-.05-.399-.108c-.693-.19-1.478-.412-2.246-.412-1.132 0-1.745.912-1.745 1.773 0 .532.093.995.231 1.438q.035.001.07.013c.023.006.04.006.063.012a.4.4 0 0 1 .081.026h.012q.061.017.115.044c.052.019.098.05.144.076a.4.4 0 0 1-.028-.076q-.009-.021-.018-.05c-.005-.013-.011-.032-.017-.045-.012-.038-.029-.07-.04-.108a1 1 0 0 1-.04-.133c-.018-.05-.03-.095-.047-.145a4.1 4.1 0 0 1-.162-1.109c0-.272.058-.513.162-.709a1 1 0 0 1 .046-.076l.04-.063a1 1 0 0 1 .272-.266q.106-.076.237-.133c.017-.007.04-.02.063-.026q.123-.047.255-.076.008.002.017-.006.232-.049.508-.05h.127q.105.002.208.012.02-.002.046.006c.012 0 .03.007.04.007q.105.011.209.031c.011 0 .029.007.04.007.018 0 .029.006.046.006.058.013.116.019.18.032.01 0 .022.006.028.006.018 0 .03.006.046.006.018 0 .03.007.04.013q.124.029.238.057h.005c.012 0 .024.006.035.006l.22.057c.011 0 .017.007.028.007q.01-.001.012.006c.012.006.029.006.046.013l.208.057c.006 0 .006 0 .012.006.011 0 .023.006.029.006.017.007.029.007.04.013l.208.057a.05.05 0 0 0 .04.019M16.872 8.486v2.312c.07.019.14.057.208.101V8.486c-.057-.006-.12-.006-.173-.006q-.018.007-.035.006M16.283 10.842c.07-.019.139-.032.208-.05v-2.28c-.017 0-.04.006-.058.006a1 1 0 0 0-.15.038zM17.306 11.12a1 1 0 0 1 .069.07V8.53q-.105-.02-.208-.031v2.47q.069.066.139.152M16.578 10.785a.8.8 0 0 1 .208 0V8.492q-.105.002-.208.013zM18.253 9.138a1.1 1.1 0 0 0-.208-.285v2.458q.018-.02.029-.038.002-.009.011-.007c.064-.17.122-.342.168-.525zM17.837 11.425a.23.23 0 0 0 .127-.038V8.784a1.2 1.2 0 0 0-.208-.127v2.761a.3.3 0 0 0 .081.007M17.664 11.393V8.619a1.3 1.3 0 0 0-.208-.063v2.71q.104.078.208.127M15.902 10.95V8.7q-.104.046-.208.102v2.204zM15.989 10.924l.208-.057v-2.28c-.064.02-.139.051-.208.076zM15.105 11.032a.6.6 0 0 0 .208.032v-2.02a3 3 0 0 0-.208.17zM15.608 11.026V8.847q-.106.057-.208.133v2.077c.063-.006.132-.012.207-.031M14.81 9.563v1.165a.54.54 0 0 0 .197.247c.006 0 .011.006.011.006V9.297a2 2 0 0 0-.196.24q-.002.018-.012.026M14.724 9.734a.9.9 0 0 0-.058.487q.024.154.058.279zM18.34 10.329c.028-.184.046-.374.046-.564 0-.145-.018-.272-.046-.386zM14.123 8.157c0 .133.093.24.214.247l.07-.013h.016a.24.24 0 0 0 .156-.234c0-.14-.104-.247-.225-.247s-.23.107-.23.247M14.99 8.239c.127 0 .225-.114.225-.247s-.104-.247-.226-.247c-.127 0-.225.114-.225.247s.104.247.226.247M15.642 8.055c.127 0 .225-.114.225-.247 0-.139-.104-.247-.225-.247s-.225.114-.225.247a.23.23 0 0 0 .225.247M16.295 7.935c.127 0 .225-.114.225-.247 0-.14-.104-.247-.225-.247-.127 0-.225.114-.225.247 0 .14.098.247.225.247M16.948 7.865c.127 0 .225-.114.225-.247 0-.139-.104-.247-.225-.247-.128 0-.226.114-.226.247 0 .14.098.247.226.247M17.589 7.91c.127 0 .225-.114.225-.247 0-.14-.104-.247-.225-.247-.127 0-.226.114-.226.247-.005.133.099.247.226.247M18.2 8.138c.128 0 .226-.114.226-.247 0-.14-.104-.247-.225-.247-.127 0-.225.114-.225.247-.006.133.098.247.225.247M18.715 8.55c.127 0 .225-.115.225-.248s-.104-.247-.225-.247c-.127 0-.225.114-.225.247s.098.247.225.247M19.079 9.126c.124 0 .225-.11.225-.247s-.1-.247-.225-.247-.225.11-.225.247c0 .136.1.247.225.247M19.027 9.563c0 .139.104.247.225.247.127 0 .225-.114.225-.247s-.104-.247-.225-.247c-.121-.007-.225.107-.225.247M19.477 10.266c0-.14-.104-.247-.225-.247s-.225.114-.225.247c0 .139.104.247.225.247s.225-.108.225-.247M18.894 10.956c0 .14.104.247.225.247s.226-.114.226-.247c0-.14-.104-.247-.226-.247-.121 0-.225.108-.225.247"/><path fill="#FFD83D" d="M18.415 11.31h.011a.4.4 0 0 0 .081-.025c.023-.006.04-.006.064-.012.023-.007.046-.007.069-.013.139-.443.23-.912.23-1.438 0-.861-.611-1.773-1.743-1.773-.763 0-1.548.215-2.247.412-.139.038-.266.076-.399.107v.095c0 .013 0 .032.006.045.006.05.006.101.011.152.076-.02.15-.038.232-.057.011-.007.028-.007.046-.013.011-.006.029-.006.04-.013l.208-.057c.017-.006.029-.006.04-.012.012 0 .024-.007.03-.007s.005 0 .011-.006l.208-.057c.011-.006.029-.006.046-.013q.01.001.012-.006c.011 0 .017-.006.029-.006q.114-.03.219-.057c.012 0 .023-.007.035-.007h.005l.237-.057c.012-.006.03-.006.04-.012.018 0 .03-.007.047-.007.011 0 .023-.006.029-.006.058-.013.115-.025.179-.032.011 0 .029-.006.046-.006.012 0 .029-.006.04-.006.07-.013.14-.02.208-.032.012 0 .03-.006.04-.006.018 0 .03 0 .047-.007q.105-.01.208-.012h.127q.276.002.508.05.009-.002.018.007c.092.019.173.044.254.076.023.006.04.019.063.025.087.038.162.082.237.133.023.013.04.032.064.044a1 1 0 0 1 .248.285c.017.026.029.051.046.076.104.197.162.437.162.71a4.1 4.1 0 0 1-.208 1.254c-.011.044-.029.088-.04.133a1 1 0 0 1-.04.107l-.018.045q-.01.02-.017.05a.4.4 0 0 0-.03.076c.047-.025.093-.057.145-.076a.4.4 0 0 1 .116-.05M13.823 6.605c.063 0 .121.013.173.025l.058-.114-.22-.456h-.023l-.22.456.058.114a.7.7 0 0 1 .174-.025M13.823 5.446l.23-.469-.23-.475-.231.475zq-.008 0 0 0M13.54 5.782v-.026q-.001-.018.006-.038l-.312-.215-.364.253.364.254zM14.1 5.782l.312.215.364-.253-.364-.254-.312.216c0 .012.006.025.006.038 0 .019-.006.031-.006.038M13.886 5.585a.2.2 0 0 0-.057-.012h-.012q-.033.002-.058.012c-.034.013-.058.045-.075.076q-.015.03-.023.057c0 .013-.006.026-.006.038v.02q0 .036.018.063a.2.2 0 0 0 .075.082q.024.01.057.019h.023c.024 0 .04-.006.058-.019a.17.17 0 0 0 .075-.082.1.1 0 0 0 .018-.064v-.019q.001-.018-.006-.038c-.006-.019-.012-.044-.023-.057a.09.09 0 0 0-.064-.076M13.626 6.865v-.089l-.034.019a.57.57 0 0 0-.272.31c.104-.012.202-.025.306-.031v-.20900000000000002M14.054 6.789q-.018-.012-.035-.013v.292c.104.006.202.018.306.031a.6.6 0 0 0-.271-.31"/><path fill="#FFD83D" d="M13.274 7.333c0 .038.006.07.012.108a3.4 3.4 0 0 1 1.074 0 .6.6 0 0 0 0-.24c-.127-.02-.254-.039-.381-.045-.023 0-.04-.019-.04-.044v-.36800000000000005a1 1 0 0 0-.11-.012 1 1 0 0 0-.11.012v.36800000000000005c0 .025-.018.044-.04.044a3 3 0 0 0-.382.044.4.4 0 0 0-.023.133M14.337 7.53a3.1 3.1 0 0 0-1.028 0 .55.55 0 0 0 .514.399.55.55 0 0 0 .514-.4M13.314 10.804c.075-.412.127-.849.162-1.248.017-.164.029-.323.04-.468.012-.12.018-.235.03-.342 0-.013.005-.032.005-.045 0-.019.006-.031.006-.044 0-.025.006-.05.006-.076l-.087-.019-.173-.032-.018-.006v.013000000000000001c0 .019 0 .044-.005.063v.127c-.006.057-.006.107-.012.164 0 .02-.006.045-.006.064s-.005.044-.005.063c-.052.671-.145 1.362-.335 1.957l-.018.05c.006-.006.012-.006.018-.012.11-.095.242-.158.392-.209M14.088 8.708c0 .012.006.031.006.044.012.101.018.215.03.342q.014.22.04.469c.034.399.086.836.161 1.247q.226.067.393.21c.006.006.012.006.017.012-.005-.019-.011-.032-.017-.05-.19-.596-.283-1.286-.335-1.958 0-.019-.006-.044-.006-.063s-.006-.044-.006-.063c-.005-.057-.005-.108-.011-.165v-.127c0-.019 0-.044-.006-.063V8.53l-.017.007-.173.031-.087.02c0 .025.006.05.006.075q.006.018.005.045"/><path fill="#FFD83D" d="M18.72 11.38c-.022 0-.04 0-.063.007-.023 0-.046.006-.063.006h-.012c-.017 0-.029.006-.04.006-.018.007-.03.007-.047.013-.011.006-.023.006-.04.013-.006 0-.006 0-.011.006-.14.044-.272.12-.387.215l-.012.013q-.025.019-.04.038l-.04.044-.018.02a2 2 0 0 0-.19.272q-.026.04-.041.088a.3.3 0 0 0-.03.07c-.022.05-.04.108-.063.165-.011.031-.04.05-.069.038-.029-.007-.046-.038-.046-.07.04-.5-.116-.931-.341-1.184l-.017-.02c-.006-.006-.018-.012-.023-.025a.3.3 0 0 0-.047-.038c-.005-.006-.017-.012-.023-.019a.6.6 0 0 0-.185-.107c-.011-.007-.028-.007-.046-.013-.006 0-.011-.006-.017-.006s-.017 0-.023-.007q-.053-.007-.104-.006c-.035 0-.07.006-.104.006h-.006c-.011 0-.023.007-.035.007q-.024.002-.04.012a1 1 0 0 0-.208.083c-.017.006-.029.019-.04.025-.018.006-.03.019-.047.025q-.103.067-.208.152c-.017.013-.028.026-.046.038a3.587 3.587 0 0 0-.248.247l-.046.051-.035.038c-.08.095-.156.196-.22.285-.017.019-.028.044-.04.063l-.034.057c-.052.083-.099.152-.122.203a.06.06 0 0 1-.063.032c-.024-.007-.04-.032-.047-.057a1.8 1.8 0 0 0-.138-.672c-.012-.031-.03-.057-.046-.088q-.029-.048-.058-.095c-.012-.02-.023-.032-.035-.051-.011-.019-.029-.032-.04-.05a1.048 1.048 0 0 0-.416-.272c-.023-.007-.04-.014-.064-.02l-.063-.019c-.012 0-.018-.006-.03-.006a1.4 1.4 0 0 0-.317-.038h-.115c-.104 0-.214.012-.318.038-.011 0-.017.006-.029.006l-.063.019c-.024.006-.04.013-.064.019-.133.05-.26.12-.37.228-.017.013-.028.032-.046.044-.017.02-.029.032-.04.051q-.018.021-.035.05-.033.048-.058.096c-.017.025-.028.057-.046.088a1.7 1.7 0 0 0-.139.672c0 .025-.017.05-.046.057a.056.056 0 0 1-.063-.032 1.4 1.4 0 0 0-.122-.203l-.034-.057-.04-.063a4 4 0 0 0-.22-.285l-.035-.038c-.011-.019-.029-.032-.046-.05-.04-.045-.087-.09-.127-.134q-.036-.037-.08-.076c-.012-.012-.03-.025-.041-.038a.3.3 0 0 0-.046-.038 1.3 1.3 0 0 0-.208-.152c-.012-.006-.03-.019-.047-.025-.011-.006-.028-.019-.04-.025a1 1 0 0 0-.208-.083c-.012-.006-.029-.006-.04-.012-.012 0-.03-.007-.04-.007h-.007a1 1 0 0 0-.104-.012q-.051-.001-.104.006c-.011 0-.017 0-.029.006-.005 0-.011.007-.017.007-.017.006-.029.006-.046.012a.6.6 0 0 0-.185.108l-.017.019c-.018.013-.03.025-.046.038l-.024.025-.017.02c-.225.253-.387.69-.34 1.19a.07.07 0 0 1-.047.07c-.029.006-.058-.013-.07-.038a1.4 1.4 0 0 0-.063-.165c-.011-.025-.017-.044-.029-.07-.011-.031-.028-.057-.04-.088a1.3 1.3 0 0 0-.208-.292l-.04-.044c-.012-.013-.03-.025-.04-.038-.007-.006-.007-.006-.012-.013a1 1 0 0 0-.387-.215c-.006 0-.006 0-.012-.006-.011-.007-.023-.007-.04-.013-.012-.006-.03-.006-.046-.013-.012-.006-.03-.006-.04-.006h-.012c-.024-.006-.04-.006-.064-.006-.023 0-.04-.007-.064-.007a1.34 1.34 0 0 0-.9.323c.357.368.606 1.052.848 1.71.191.526.376 1.026.601 1.362a.5.5 0 0 1 .202-.133l-.046-.165c-.006-.025.006-.05.029-.057a.04.04 0 0 1 .052.032l.046.158c.046-.012.093-.031.145-.044l-.04-.165c-.007-.025.005-.05.028-.057a.04.04 0 0 1 .052.032l.04.165q.072-.021.15-.032l-.028-.158a.05.05 0 0 1 .034-.057c.023-.007.047.012.052.038l.03.158c.046-.006.098-.019.15-.025l-.03-.165a.05.05 0 0 1 .035-.057c.023-.006.046.013.052.038l.03.171q.096-.018.201-.025l-.023-.159a.05.05 0 0 1 .035-.057c.023-.006.046.013.052.038l.023.165c.075-.006.15-.019.225-.025l-.017-.127a.05.05 0 0 1 .034-.057c.024-.006.047.013.052.038l.024.133.225-.019-.023-.215a.04.04 0 0 1 .04-.051c.023 0 .046.013.046.044l.024.222c.063-.006.132-.013.202-.013l-.018-.17a.04.04 0 0 1 .04-.051c.024 0 .047.012.047.044l.023.177c.064-.006.133-.006.196-.012l-.023-.197a.04.04 0 0 1 .04-.05c.024 0 .047.012.047.044l.023.203c.064 0 .127-.007.185-.007l-.012-.221c0-.026.018-.051.04-.051.024 0 .047.019.047.044l.011.222c.07 0 .145-.006.214-.006l-.011-.21c0-.025.017-.05.04-.05s.046.019.046.044l.012.21c.063 0 .127-.007.185-.007l-.012-.222c0-.025.018-.05.04-.05.024 0 .047.019.047.044l.011.222c.075 0 .145-.007.214-.007l-.011-.234c0-.025.017-.05.04-.05s.046.018.046.044l.012.234q.138.002.26-.006l-.012-.241c0-.025.017-.05.04-.05.024 0 .047.018.047.044l.011.24h.335v-.266c0-.025.018-.05.046-.05q.046.002.047.05v.266h.335l.011-.24c0-.026.023-.045.046-.045.024 0 .04.026.04.051l-.01.24q.12-.002.26.007l.01-.234c0-.026.024-.045.047-.045s.04.026.04.051l-.011.234c.07 0 .138 0 .214.007l.011-.222c0-.025.023-.044.046-.044.024 0 .04.025.04.05l-.01.222c.063 0 .12.006.184.006l.012-.209c0-.025.023-.044.046-.044s.04.025.04.05l-.011.21c.069 0 .138.006.213.006l.012-.222c0-.025.023-.044.046-.044s.04.025.04.05l-.01.222c.063 0 .126.007.184.007l.023-.203c.006-.025.023-.044.046-.044.023.006.04.025.04.05l-.022.197c.063.006.132.006.196.012l.023-.177c.006-.025.023-.044.046-.044.023.006.04.025.04.05l-.017.171c.07.007.133.007.203.013l.023-.222c.005-.025.023-.044.046-.044.023.006.04.025.04.05l-.023.216.225.019.024-.133c.005-.025.028-.044.052-.038a.05.05 0 0 1 .034.057l-.017.127q.112.007.225.025l.023-.165c.006-.025.03-.044.052-.038a.05.05 0 0 1 .035.057l-.023.159c.07.006.138.019.202.025l.029-.171c.006-.025.029-.044.052-.038a.05.05 0 0 1 .034.057l-.029.165c.052.006.105.019.15.025l.03-.158c.005-.026.029-.045.052-.038a.05.05 0 0 1 .034.057l-.029.158c.052.013.104.019.15.032l.041-.165a.04.04 0 0 1 .052-.032c.023.007.035.032.029.057l-.04.165c.051.013.098.032.144.044l.046-.158a.04.04 0 0 1 .052-.032c.023.007.035.032.029.057l-.046.165a.5.5 0 0 1 .202.133c.225-.336.41-.836.6-1.362.243-.665.497-1.349.855-1.716-.294-.222-.606-.33-.912-.317m-.27.729q.017-.057.028-.095l.017-.057a1 1 0 0 1 .03-.089c.005-.013.01-.019.017-.032a.1.1 0 0 1 .023-.019c.006-.006.017-.006.023-.012.011-.007.017-.007.029-.007.029 0 .052.026.029.083q-.025.068-.058.126a1 1 0 0 0-.04.095c0 .007-.006.013-.006.02-.006.018-.023.031-.035.044-.046.019-.087.012-.058-.057m-.226-.152a.07.07 0 0 1 .052-.057c.006 0 .017-.007.023-.007.029 0 .058.026.046.076-.023.083-.069.178-.086.228-.018.051-.07.026-.058-.044q.01-.056.011-.101c0-.032.006-.057.012-.095m-.139.145c-.011.07-.034.127-.046.197-.017.07-.058.057-.058-.007 0-.063.012-.133.018-.202.006-.032.029-.057.052-.057s.04.019.034.07m-1.38-.76c-.035.083-.075.14-.11.228-.034.083-.08.032-.063-.025s.034-.12.08-.24c.018-.045.041-.064.058-.064.035 0 .058.044.035.101m.387.298c-.035.076-.098.165-.127.215-.029.051-.081.02-.046-.05.034-.07.046-.146.086-.241.018-.038.04-.05.058-.05.04.012.064.063.029.126m-.318-.05q.02-.075.046-.178.019-.074.052-.063c.035.006.064.063.04.107-.034.07-.051.095-.08.171-.035.07-.07.013-.058-.038m.52.538c.035.006.07.044.023.101-.07.095-.138.158-.167.196-.023.038-.093.02-.046-.05.04-.076.104-.165.132-.222a.05.05 0 0 1 .04-.025c.012-.007.012-.007.018 0m-.127-.292c.017-.031.035-.05.046-.05.035-.007.04.095.012.139-.04.057-.098.127-.156.203-.046.063-.075.006-.046-.045.023-.057.069-.114.144-.247m-.86-.285c.017-.07.023-.107.063-.234.011-.044.04-.07.058-.076h.017c.023.006.04.038.023.076-.029.076-.07.158-.098.24-.029.077-.087.058-.064-.006m-.284.12c.012-.056.03-.151.07-.29.017-.064.046-.083.069-.077.029.007.052.057.035.114-.023.076-.064.152-.093.241-.04.089-.098.07-.08.013m-1.582-.36a1.3 1.3 0 0 0-.03.253c0 .07-.051.044-.057-.006a3 3 0 0 1-.011-.247c0-.038.011-.064.023-.076q.008-.009.017-.007h.017q.026.01.04.038c0 .02.007.032 0 .045m.306.614q.01-.057.046-.057h.012c.023.006.046.038.034.076-.017.076-.04.152-.052.228s-.092.076-.075.006c.006-.07.012-.152.035-.253m-.15-.336c.005-.044.029-.063.046-.063.035 0 .07.05.058.095-.018.076-.046.14-.07.234-.017.083-.075.045-.069-.012 0-.057.012-.133.035-.254m1.16.19c.018-.082.018-.107.035-.196.012-.05.04-.082.07-.082h.011q.026.007.018.063c-.012.063-.053.19-.07.247s-.08.044-.063-.032m-1.657-.601c0-.038.017-.057.04-.064h.012c.029.007.058.038.058.07-.006.063-.018.14-.023.234-.006.095-.07.057-.075.007a.8.8 0 0 1-.012-.247m-.22-.051c.012-.032.035-.044.058-.044.035 0 .064.031.052.082-.011.063-.023.19-.034.272-.012.095-.064.07-.075 0v-.012c-.012-.064-.006-.114-.012-.241.006-.025.006-.044.011-.057m-.179-.044c.024 0 .047.012.058.044a.14.14 0 0 1 .012.057c-.006.127 0 .177-.012.24v.013c-.011.076-.063.095-.075 0-.011-.082-.023-.209-.035-.272-.005-.05.024-.082.052-.082m-.208.038h.012c.017 0 .035.019.04.063.006.108 0 .19-.005.247-.006.057-.07.095-.075-.006-.006-.095-.024-.171-.024-.235-.005-.038.024-.07.052-.07m-.196.19c0 .095-.006.196-.011.247-.006.05-.058.076-.058.006 0-.082-.018-.171-.03-.253-.005-.013 0-.032.007-.045.005-.019.023-.038.04-.038.012-.006.023 0 .035.007q.017.018.017.076m-.456.557h.011q.028 0 .047.057c.023.101.028.184.04.253.011.07-.063.064-.075-.006-.012-.076-.035-.152-.052-.228-.017-.044 0-.076.029-.076m.167-.013c-.023-.095-.052-.158-.069-.234-.012-.044.023-.095.058-.095q.036-.002.046.063c.023.12.029.197.035.254.005.057-.047.095-.07.012m-1.236-.354h.012c.023 0 .057.031.07.082.016.089.016.114.034.196.017.083-.052.095-.07.032-.017-.057-.057-.184-.069-.247q-.001-.055.023-.063m-.283-.197c.023-.006.052.02.07.076.04.14.052.235.069.292.011.057-.04.076-.07-.013-.034-.089-.069-.158-.092-.24-.029-.058-.011-.108.023-.115m-.289-.057c.024-.006.058.013.075.076.04.127.047.165.064.235s-.04.088-.064.012c-.028-.082-.069-.164-.098-.24-.017-.045 0-.076.023-.083m-.63.279c.018 0 .047.013.059.05.04.096.052.172.086.241.035.07-.017.102-.046.051s-.092-.146-.127-.215c-.029-.076-.006-.127.029-.127m.243.095c-.029-.076-.052-.101-.08-.171-.018-.044.011-.101.04-.108.017 0 .04.013.052.064.017.07.035.126.046.177.012.057-.023.114-.058.038m.156-.38q.029-.002.058.063c.046.12.064.184.081.241s-.035.108-.064.025c-.034-.088-.075-.145-.11-.228-.022-.057 0-.101.035-.101m-.543.545q.02.002.047.05c.075.133.12.19.15.241s0 .108-.046.044c-.058-.076-.116-.145-.156-.202-.035-.038-.03-.14.005-.133m-.08.342c.023-.007.046.006.052.025.028.057.092.146.132.222s-.023.088-.046.05-.098-.101-.167-.196c-.04-.063-.006-.095.029-.101m-1.15-.02c.023.07-.011.077-.046.058a.1.1 0 0 1-.035-.045c0-.006-.005-.012-.005-.019-.012-.025-.03-.057-.04-.095-.018-.044-.041-.088-.059-.126-.023-.057-.005-.083.03-.083q.013-.002.028.007c.006 0 .017.006.023.012.006.007.018.013.023.02a.1.1 0 0 1 .018.031c.011.032.017.063.028.089l.018.057q-.009.038.017.095m.393-.075c.023 0 .052.025.052.057q.017.106.017.202c0 .064-.04.076-.058.007-.017-.07-.034-.127-.046-.197-.006-.05.012-.07.035-.07m-.173-.076c.005.038.011.063.011.095.006.031.006.063.012.101.011.076-.04.095-.058.044-.017-.05-.064-.145-.087-.228-.011-.05.012-.076.047-.076.005 0 .017 0 .023.007q.043.009.052.057m-.78.088a1.5 1.5 0 0 0-.18-.139c-.04-.032-.034-.082.012-.082a.1.1 0 0 1 .058.019c.098.05.133.107.173.158.035.05.012.108-.063.044m.242-.012a1.4 1.4 0 0 1-.15-.171c-.034-.051-.023-.127.012-.127q.025-.002.07.063c.045.076.08.127.103.178.023.044.012.107-.035.057m.948 1.78c-.104-.21-.318-.431-.56-.64a.2.2 0 0 0-.058-.045c-.018-.019-.035-.031-.058-.05h-.006a.3.3 0 0 0-.046-.038c-.012-.013-.029-.026-.04-.038-.03-.02-.052-.045-.081-.064-.07-.057-.052-.107.04-.082.012.006.029.006.04.013a.1.1 0 0 1 .041.025c.017.006.029.019.046.025a.2.2 0 0 0 .127.045c.035 0 .075 0 .07-.083-.006-.082-.104-.278-.185-.411l-.006-.007c-.029-.05-.023-.07 0-.07h.006q.027.002.063.032a3 3 0 0 1 .289.33.2.2 0 0 1 .029.044c.075.108.15.089.167.057a.5.5 0 0 0 .052-.152c0-.013.006-.019.006-.032 0-.006.006-.012.006-.019.017-.05.046-.07.063-.031a.1.1 0 0 1 .012.05v.032c0 .095-.035.203-.063.361v.013c0 .012-.006.031-.006.05v.045c-.006.17.034.411.144.69.04.108-.035.07-.092-.05m1.738-.254a2 2 0 0 0-.127-.386c-.005-.02-.017-.032-.023-.045-.006-.019-.017-.031-.023-.05a1.8 1.8 0 0 0-.26-.374 3 3 0 0 0-.254-.26c-.07-.063-.017-.107.029-.07a1 1 0 0 0 .162.102c.052.025.092.013.104-.063s-.012-.247-.093-.57c-.017-.057-.006-.102.017-.108h.012c.017 0 .035.025.046.07.04.12.168.386.231.487.064.102.139.057.185-.063.07-.171.116-.07.07.038-.053.114-.076.26-.087.43a3 3 0 0 0 .017.47c.012.12.029.253.046.386.018.107-.034.095-.052.006m2.305 0c0 .089-.017.114-.052.114s-.046-.025-.046-.114a2 2 0 0 0-.035-.386c-.006-.02-.006-.032-.011-.045-.006-.019-.006-.031-.012-.05a2.3 2.3 0 0 0-.318-.684q-.088-.142-.184-.285c-.093-.146-.035-.178.046-.114a.7.7 0 0 0 .15.107l.04.026c.07.044.15.063.202-.013a.7.7 0 0 0 .104-.285 1 1 0 0 0 .012-.114c0-.038.006-.082.023-.101l.006-.007c.006 0 .011-.006.017-.006q.009-.002.018.006l.005.007c.018.019.023.063.023.101a1 1 0 0 0 .012.114 1 1 0 0 0 .104.285c.052.076.133.057.202.013.017-.007.029-.02.04-.026.047-.031.087-.063.15-.107.076-.064.133-.026.047.114-.064.095-.121.19-.185.285a2.1 2.1 0 0 0-.312.684c-.006.012-.006.031-.011.05-.006.013-.006.032-.012.045-.006.12-.023.247-.023.386m2.206 0c-.017.089-.069.101-.057 0 .017-.133.034-.266.046-.386 0-.02 0-.032.006-.045 0-.019 0-.031.005-.05q.016-.201.006-.374a1.1 1.1 0 0 0-.086-.43c-.047-.108 0-.21.069-.039.046.114.127.159.185.064.063-.102.19-.368.23-.488.012-.044.035-.063.047-.07h.011c.018.007.03.045.018.108-.081.323-.104.488-.093.57.012.076.052.089.104.063a1 1 0 0 0 .162-.101c.046-.038.098.006.029.07a4 4 0 0 0-.254.26c-.098.12-.185.24-.26.373-.006.013-.017.032-.023.05-.006.013-.018.032-.023.045-.047.114-.093.24-.122.38m2.588-.62c-.029.018-.052.044-.08.063q-.026.018-.041.038c-.018.012-.03.025-.047.038h-.005a.4.4 0 0 0-.058.05c-.017.013-.035.032-.058.045-.242.215-.456.437-.56.64-.058.113-.133.158-.093.05.11-.272.15-.513.145-.69v-.045c0-.019-.006-.031-.006-.05v-.013c-.029-.158-.058-.266-.063-.361v-.032c0-.025.005-.038.011-.05.018-.032.046-.02.064.031 0 .007.006.013.006.02 0 .006.005.018.005.031.018.057.04.12.052.152.018.032.098.05.168-.057q.01-.018.029-.044c.005-.007.005-.013.011-.02.087-.113.225-.265.277-.31.023-.019.047-.031.064-.031h.006c.023 0 .029.025 0 .07l-.006.006c-.087.126-.18.323-.185.411-.006.083.029.083.07.083a.22.22 0 0 0 .127-.045c.011-.006.028-.019.046-.025l.04-.025a.1.1 0 0 1 .04-.013c.093-.025.11.025.041.082m.104-.906c-.046.044-.064-.013-.04-.064.023-.044.057-.095.104-.177q.043-.065.069-.063c.04 0 .052.076.011.126-.052.076-.086.12-.144.178m.416-.133c-.052.044-.116.088-.18.139-.069.063-.097.006-.063-.05.04-.051.075-.108.173-.159a.1.1 0 0 1 .058-.019c.047.013.052.057.012.089M13.823 8.423c.086 0 .161-.076.161-.178s-.069-.177-.161-.177c-.093 0-.162.076-.162.177 0 .102.075.178.162.178M13.65 8.714v.013q-.001.02.005.031c0 .013.006.02.006.026.017.05.052.095.098.114.012.006.023.006.035.012h.046a.1.1 0 0 0 .035-.012.17.17 0 0 0 .098-.114c0-.007.006-.02.006-.026 0-.012.006-.025.006-.031v-.013c0-.019-.006-.032-.006-.044l-.018-.038a.16.16 0 0 0-.144-.089.18.18 0 0 0-.145.089l-.017.038c0 .012-.006.031-.006.044M13.76 9.442a.1.1 0 0 0 .034.007h.046c.012 0 .023-.007.035-.007a.21.21 0 0 0 .133-.196.21.21 0 0 0-.133-.196q-.018-.009-.035-.007h-.046c-.012 0-.023.007-.035.007a.21.21 0 0 0-.133.196.21.21 0 0 0 .133.196M13.76 10.057a.1.1 0 0 0 .034.006h.046c.012 0 .023-.006.035-.006a.25.25 0 0 0 .161-.235c0-.107-.069-.209-.161-.234q-.018-.008-.035-.006h-.046c-.012 0-.023.006-.035.006a.25.25 0 0 0-.162.234c0 .108.07.203.162.235M13.76 10.728c.01 0 .022.006.034.006h.046q.017.002.035-.006c.11-.032.19-.14.19-.266a.274.274 0 0 0-.19-.266c-.012 0-.023-.006-.035-.006h-.046q-.018-.001-.035.006a.274.274 0 0 0-.19.266c0 .127.08.234.19.266"/><path fill="#000" d="M19.749 11.653a1.6 1.6 0 0 0-.555-.323.37.37 0 0 0 .272-.368.4.4 0 0 0-.162-.323.37.37 0 0 0 .289-.373.39.39 0 0 0-.22-.355.38.38 0 0 0 .232-.355c0-.196-.14-.36-.318-.373a.39.39 0 0 0 .144-.304c0-.21-.156-.374-.34-.374a.3.3 0 0 0-.081.013.4.4 0 0 0 .063-.216c0-.209-.156-.373-.34-.373a.3.3 0 0 0-.186.057q.01-.048.012-.095c0-.21-.156-.374-.34-.374a.34.34 0 0 0-.267.14c0-.203-.155-.374-.34-.374a.35.35 0 0 0-.312.221c-.046-.152-.173-.266-.33-.266-.167 0-.305.133-.334.304a.35.35 0 0 0-.318-.234c-.18 0-.324.152-.34.342a.35.35 0 0 0-.313-.222c-.19 0-.34.171-.34.374v.013a.34.34 0 0 0-.307-.21c-.184 0-.335.159-.34.362a.34.34 0 0 0-.3-.19h-.007a.77.77 0 0 0 .139-.444.73.73 0 0 0-.375-.652l.063-.133a.05.05 0 0 0 0-.057l-.225-.456a.27.27 0 0 0 .121-.127l.318.222a.1.1 0 0 0 .029.013.04.04 0 0 0 .029-.013l.467-.33a.07.07 0 0 0 .03-.05c0-.019-.012-.044-.03-.05l-.467-.33q-.027-.02-.064 0l-.323.222a.28.28 0 0 0-.122-.114l.231-.469a.05.05 0 0 0 0-.057l-.3-.614c-.017-.045-.08-.045-.104 0l-.3.614a.05.05 0 0 0 0 .057l.23.469a.28.28 0 0 0-.12.114l-.324-.222q-.027-.02-.064 0l-.467.33a.07.07 0 0 0-.03.05c0 .019.012.044.03.05l.467.33c.012.006.018.013.03.013a.04.04 0 0 0 .028-.013l.318-.222a.35.35 0 0 0 .121.127l-.225.456a.05.05 0 0 0 0 .057l.064.133a.73.73 0 0 0-.376.652c0 .171.052.323.139.444h-.006a.34.34 0 0 0-.3.19c-.006-.203-.156-.361-.341-.361a.34.34 0 0 0-.306.209v-.013c0-.209-.156-.374-.341-.374a.34.34 0 0 0-.312.222c-.017-.19-.162-.342-.34-.342a.34.34 0 0 0-.319.234c-.028-.17-.167-.304-.335-.304-.155 0-.283.108-.329.266a.34.34 0 0 0-.312-.221c-.185 0-.34.164-.34.373a.33.33 0 0 0-.266-.139c-.19 0-.341.171-.341.374q.002.047.012.095a.3.3 0 0 0-.185-.057c-.19 0-.341.17-.341.373 0 .083.023.152.064.216-.03-.007-.052-.013-.081-.013-.191 0-.341.171-.341.374 0 .126.058.234.144.304-.179.012-.317.177-.317.373 0 .165.098.304.23.355a.38.38 0 0 0-.219.355c0 .183.127.342.289.373a.38.38 0 0 0-.162.323c0 .178.116.33.272.368-.19.063-.382.17-.555.323a.1.1 0 0 0-.023.05q-.001.03.023.051c.364.33.624 1.032.872 1.716.208.564.405 1.096.659 1.45q.009.02.034.02c.185.392 2.143.728 4.367.728s4.188-.336 4.367-.728a.1.1 0 0 0 .029-.02c.254-.348.45-.88.658-1.45.248-.684.508-1.387.872-1.716a.08.08 0 0 0 .023-.05c-.04-.026-.052-.045-.063-.051m-.982 1.76c-.19.526-.375 1.026-.6 1.362a.5.5 0 0 0-.203-.133l.046-.165c.006-.025-.006-.05-.029-.057a.04.04 0 0 0-.052.032l-.046.158c-.046-.012-.092-.031-.144-.044l.04-.165c.006-.025-.006-.05-.029-.057a.04.04 0 0 0-.052.032l-.04.165a1 1 0 0 0-.15-.032l.029-.158a.05.05 0 0 0-.035-.057c-.023-.007-.046.012-.052.038l-.029.158c-.046-.006-.098-.019-.15-.025l.029-.165a.05.05 0 0 0-.035-.057c-.023-.006-.046.013-.052.038l-.029.171a2 2 0 0 0-.202-.025l.023-.159a.05.05 0 0 0-.034-.057c-.023-.006-.047.013-.052.038l-.024.165c-.075-.006-.15-.019-.225-.025l.018-.127a.05.05 0 0 0-.035-.057c-.023-.006-.046.013-.052.038l-.023.133-.225-.019.023-.215a.04.04 0 0 0-.04-.051c-.024 0-.047.013-.047.044l-.023.222a2 2 0 0 0-.202-.013l.017-.17a.04.04 0 0 0-.04-.051c-.023 0-.046.012-.046.044l-.024.177c-.063-.006-.133-.006-.196-.012l.023-.197a.04.04 0 0 0-.04-.05c-.023 0-.046.012-.046.044l-.024.203c-.063 0-.127-.007-.184-.007l.011-.221c0-.026-.017-.051-.04-.051-.024 0-.047.019-.047.044l-.011.222c-.07 0-.144-.006-.214-.006l.012-.21c0-.025-.018-.05-.04-.05-.024 0-.047.019-.047.044l-.011.21c-.064 0-.128-.007-.185-.007l.011-.222c0-.025-.017-.05-.04-.05s-.046.019-.046.044l-.012.222c-.075 0-.144-.007-.214-.007l.012-.234c0-.025-.017-.05-.04-.05-.024 0-.047.018-.047.044l-.011.234q-.14.002-.26-.006l.011-.241c0-.025-.017-.05-.04-.05s-.046.018-.046.044l-.012.24h-.335v-.266c0-.025-.017-.05-.046-.05q-.045.002-.046.05v.266h-.335l-.012-.24c0-.026-.023-.045-.046-.045s-.04.026-.04.051l.011.24q-.12-.002-.26.007l-.011-.234c0-.026-.023-.045-.047-.045-.023 0-.04.026-.04.051l.011.234q-.102-.002-.213.007l-.012-.222c0-.025-.023-.044-.046-.044s-.04.025-.04.05l.011.222c-.063 0-.121.006-.185.006l-.011-.209c0-.025-.023-.044-.046-.044-.024 0-.04.025-.04.05l.01.21c-.069 0-.138.006-.213.006l-.012-.222c0-.025-.023-.044-.046-.044s-.04.025-.04.05l.011.222c-.063 0-.127.007-.185.007l-.023-.203c-.005-.025-.023-.044-.046-.044a.05.05 0 0 0-.04.05l.023.197c-.064.006-.133.006-.197.012l-.023-.177c-.005-.025-.023-.044-.046-.044a.05.05 0 0 0-.04.05l.017.171c-.07.007-.133.007-.202.013l-.023-.222c-.006-.025-.023-.044-.046-.044a.05.05 0 0 0-.04.05l.022.216-.225.019-.023-.133c-.006-.025-.029-.044-.052-.038a.05.05 0 0 0-.035.057l.018.127q-.112.007-.226.025l-.023-.165c-.006-.025-.029-.044-.052-.038a.05.05 0 0 0-.034.057l.023.159c-.07.006-.139.019-.202.025l-.03-.171c-.005-.025-.028-.044-.051-.038a.05.05 0 0 0-.035.057l.029.165c-.052.006-.104.019-.15.025l-.03-.158c-.005-.026-.028-.045-.051-.038a.05.05 0 0 0-.035.057l.03.158c-.053.013-.105.019-.151.032l-.04-.165a.04.04 0 0 0-.053-.032c-.023.007-.034.032-.028.057l.04.165c-.052.013-.098.032-.144.044l-.047-.158a.04.04 0 0 0-.052-.032c-.023.007-.034.032-.028.057l.046.165a.5.5 0 0 0-.202.133c-.226-.336-.41-.836-.601-1.362-.243-.665-.491-1.349-.85-1.71.284-.228.596-.335.902-.323.023 0 .04 0 .063.007.024 0 .047.006.064.006h.012c.017 0 .028.006.04.006.017.007.029.007.046.013.012.006.023.006.04.013.006 0 .006 0 .012.006.139.044.272.12.387.215l.012.013q.024.019.04.038l.04.044.018.02c.07.082.133.17.19.272q.026.04.04.088a.3.3 0 0 1 .03.07c.023.05.04.108.063.165.012.031.04.05.07.038.028-.007.046-.038.046-.07-.04-.5.115-.931.34-1.19l.018-.02.023-.025a.3.3 0 0 1 .046-.038l.018-.019a.5.5 0 0 1 .184-.108c.012-.006.03-.006.047-.012.005 0 .011-.007.017-.007.011 0 .017 0 .029-.006q.053-.008.104-.006.052.002.104.012h.006c.011 0 .028.007.04.007.017.006.029.006.04.012.07.02.139.051.208.083.018.006.03.019.04.025.018.006.03.019.047.025q.112.067.208.152c.017.013.029.026.046.038q.025.02.04.038c.03.026.053.051.081.076q.069.067.127.133l.047.051.034.038c.081.095.156.196.22.285.017.019.029.044.04.063l.035.057c.052.083.098.152.121.203.012.025.04.038.064.032.023-.007.04-.032.046-.057a1.8 1.8 0 0 1 .139-.672c.011-.031.028-.057.046-.088.017-.032.04-.064.058-.095.011-.02.023-.032.034-.051s.03-.032.04-.05a1.05 1.05 0 0 1 .416-.272c.024-.007.041-.014.064-.02s.04-.013.064-.019c.011 0 .017-.006.028-.006.104-.026.214-.038.318-.038h.116c.104.006.213.012.317.038.012 0 .018.006.03.006l.063.019.063.019c.133.05.26.12.37.228.017.013.029.032.046.044.018.02.03.032.04.051q.018.021.035.05.033.048.058.096c.017.025.029.057.046.088.081.178.133.393.139.672 0 .025.017.05.046.057a.056.056 0 0 0 .064-.032q.035-.077.12-.203l.036-.057.04-.063q.097-.133.22-.285l.034-.038c.012-.019.029-.032.046-.05a1.7 1.7 0 0 1 .208-.21c.012-.012.03-.025.04-.038a2.158 2.158 0 0 1 .254-.19c.012-.006.03-.019.047-.025.012-.006.029-.019.04-.025a1 1 0 0 1 .208-.083c.012-.006.03-.006.04-.012.012 0 .024-.007.036-.007h.005q.053-.008.104-.006a.6.6 0 0 1 .127.013c.006 0 .012.006.018.006.017.006.029.006.046.013a.5.5 0 0 1 .185.107c.006.007.017.013.023.02.017.012.029.025.046.037.006.007.017.013.023.026l.017.019c.226.253.387.69.341 1.184 0 .032.018.057.046.07.03.006.058-.013.07-.038q.027-.087.063-.165c.012-.025.018-.044.03-.07.01-.031.028-.057.04-.088.057-.102.115-.197.19-.273l.018-.019.04-.044c.012-.013.029-.025.04-.038l.012-.013c.115-.101.243-.17.387-.215.006 0 .006 0 .012-.006.011-.007.023-.007.04-.013.011-.006.029-.006.046-.013.012-.006.029-.006.04-.006h.012c.023-.006.04-.006.064-.006.023 0 .04-.007.063-.007.306-.012.624.095.901.323-.346.368-.595 1.052-.843 1.71m-10.2-4.781c.127 0 .225.114.225.247s-.104.247-.225.247-.226-.114-.226-.247.098-.247.226-.247m.363-.583c.128 0 .226.114.226.247s-.104.247-.226.247c-.127 0-.225-.114-.225-.247s.098-.247.225-.247m.74-.165c0 .14-.104.247-.226.247-.127 0-.225-.114-.225-.247 0-.139.104-.247.226-.247.127 0 .225.114.225.247m.612-.228c0 .14-.104.247-.225.247-.127 0-.226-.114-.226-.247 0-.139.104-.247.226-.247.121 0 .225.108.225.247m.41-.291c.127 0 .225.114.225.247 0 .14-.104.247-.225.247-.127 0-.225-.114-.225-.247s.104-.247.225-.247m.884.323c0 .14-.104.247-.225.247-.128 0-.226-.114-.226-.247 0-.14.104-.247.226-.247.12 0 .225.108.225.247m.422-.133c.127 0 .225.114.225.247 0 .14-.104.247-.226.247-.12 0-.225-.114-.225-.247s.104-.247.226-.247m.652.184c.127 0 .225.114.225.247s-.104.247-.225.247c-.127 0-.225-.114-.225-.247s.098-.247.225-.247m.641.164c.127 0 .226.114.226.247s-.093.241-.214.247l-.07-.012h-.017a.24.24 0 0 1-.156-.235c.006-.133.104-.247.231-.247m-.017-.57q.001-.066.012-.133c.127-.019.254-.038.38-.044.024 0 .041-.019.041-.044v-.368a.6.6 0 0 1 .11-.012q.059.002.11.012v.368c0 .025.017.044.04.044q.19.008.381.044a.5.5 0 0 1 .012.133c0 .038-.006.07-.012.108a3.4 3.4 0 0 0-1.074 0c.006-.038 0-.07 0-.108m.399-1.494a.1.1 0 0 1-.018-.064v-.019q-.002-.018.006-.038c.006-.019.011-.044.023-.057a.2.2 0 0 1 .075-.076.2.2 0 0 1 .058-.012h.011c.024 0 .04.006.058.012.035.013.058.045.075.076a.2.2 0 0 1 .023.057c0 .013.006.026.006.038v.02a.1.1 0 0 1-.017.063.2.2 0 0 1-.075.082l-.058.019h-.023a.1.1 0 0 1-.058-.019.17.17 0 0 1-.087-.082m-.803-.089.364-.253.312.215c0 .013-.006.025-.006.038v.025l-.312.216zm.953-1.254.23.475-.23.469h-.012l-.23-.469zm.953 1.254-.364.253-.312-.215v-.025q.001-.02-.006-.038l.312-.216zm-.953.317h.011l.22.456-.058.114a.6.6 0 0 0-.173-.026.8.8 0 0 0-.174.026l-.057-.114.22-.456zm.196.791v-.082a.1.1 0 0 0 .035.013c.121.063.22.17.271.31-.104-.013-.202-.025-.306-.032zm-.393-.082v.291c-.104.007-.202.02-.306.032a.57.57 0 0 1 .272-.31c.011-.007.023-.007.034-.013m.71.754a.55.55 0 0 1-.513.399.55.55 0 0 1-.514-.4c.34-.05.687-.05 1.028 0m.243.627c0 .114-.069.202-.156.234h-.017l-.07.013c-.115-.007-.213-.114-.213-.247 0-.14.104-.247.225-.247s.231.107.231.247m.641-.171c0 .139-.104.247-.225.247-.127 0-.225-.114-.225-.247s.104-.247.225-.247.226.107.226.247m.422-.431c.127 0 .225.114.225.247 0 .14-.104.247-.225.247s-.225-.114-.225-.247c-.006-.133.098-.247.225-.247m.653-.114c.127 0 .225.114.225.247 0 .14-.104.247-.225.247-.127 0-.225-.114-.225-.247 0-.14.098-.247.225-.247m.878.177c0 .14-.104.247-.225.247-.128 0-.226-.114-.226-.247 0-.139.104-.247.226-.247.127-.006.225.108.225.247m.416-.209c.127 0 .225.114.225.247 0 .14-.104.247-.225.247-.127 0-.226-.114-.226-.247a.23.23 0 0 1 .226-.247m.612.228c.127 0 .225.114.225.247 0 .14-.104.247-.225.247-.127 0-.225-.114-.225-.247-.006-.133.098-.247.225-.247m.74.665c0 .14-.105.247-.226.247-.127 0-.225-.114-.225-.247s.104-.247.225-.247c.121-.006.225.108.225.247m-8.416-.253c.762 0 1.548.215 2.246.412.14.038.266.076.399.107v.095c0 .013 0 .032-.006.045-.005.05-.005.101-.011.152q-.111-.03-.231-.057c-.012-.007-.03-.007-.047-.013-.011-.006-.028-.006-.04-.013l-.208-.057c-.017-.006-.029-.006-.04-.012-.012 0-.024-.007-.03-.007s-.005 0-.01-.006l-.209-.057c-.011-.006-.029-.006-.046-.013q-.01.002-.011-.006c-.012 0-.018-.006-.03-.006-.074-.02-.15-.038-.219-.057-.011 0-.023-.007-.034-.007h-.006l-.237-.057c-.012-.006-.029-.006-.04-.012-.018 0-.03-.007-.047-.007-.011 0-.023-.006-.029-.006q-.084-.02-.179-.032c-.011 0-.029-.006-.046-.006-.011 0-.029-.006-.04-.006-.07-.013-.139-.02-.208-.032-.012 0-.03-.006-.04-.006-.018 0-.03 0-.047-.007q-.105-.01-.208-.012h-.127q-.276.002-.508.05-.009-.002-.018.007a1.5 1.5 0 0 0-.254.076c-.023.006-.04.019-.063.025a1.5 1.5 0 0 0-.237.133c-.023.013-.04.032-.064.044a1 1 0 0 0-.248.285c-.017.026-.029.051-.046.076a1.5 1.5 0 0 0-.162.71 4.1 4.1 0 0 0 .208 1.254c.012.044.029.088.04.133.012.038.024.07.041.107.006.02.011.032.017.045l.018.05q.018.039.028.076a.6.6 0 0 0-.144-.076 1 1 0 0 0-.115-.044h-.012a.4.4 0 0 1-.08-.025c-.024-.007-.041-.007-.064-.013-.024-.006-.047-.006-.07-.013a4.7 4.7 0 0 1-.23-1.437c0-.868.612-1.78 1.744-1.78m6.59 0c1.132 0 1.744.912 1.744 1.773 0 .532-.092.995-.23 1.438q-.036.001-.07.013c-.023.006-.04.006-.064.012a.4.4 0 0 0-.08.026h-.012q-.061.017-.115.044c-.052.019-.099.05-.145.076q.019-.037.029-.076.01-.021.017-.05l.018-.045c.011-.038.029-.07.04-.108q.024-.066.04-.133c.018-.05.03-.095.047-.145.098-.355.162-.722.162-1.109a1.5 1.5 0 0 0-.162-.709 1 1 0 0 0-.046-.076c-.012-.019-.03-.044-.04-.063a1 1 0 0 0-.272-.266 1.3 1.3 0 0 0-.237-.133c-.018-.007-.04-.02-.064-.026a2 2 0 0 0-.254-.076q-.009.002-.017-.006a2.5 2.5 0 0 0-.509-.05h-.127q-.104.001-.207.012-.02-.002-.047.006c-.011 0-.029.007-.04.007q-.105.011-.208.031c-.012 0-.029.007-.04.007-.018 0-.03.006-.047.006-.057.013-.115.019-.179.032-.011 0-.023.006-.029.006-.017 0-.028.006-.046.006s-.029.007-.04.013l-.237.057h-.006c-.011 0-.023.006-.034.006l-.22.057c-.012 0-.017.007-.029.007q-.01-.002-.011.006c-.012.006-.03.006-.047.013l-.208.057c-.005 0-.005 0-.011.006-.012 0-.023.006-.029.006-.017.007-.029.007-.04.013l-.208.057c-.018.006-.03.006-.04.013-.012.006-.03.006-.047.012l-.231.057c-.006-.05-.006-.101-.012-.152 0-.012 0-.031-.005-.044v-.095q.19-.05.398-.108c.7-.183 1.485-.405 2.247-.405m-.243.437h.035c.052 0 .116 0 .173.006v2.413a.8.8 0 0 0-.208-.101zm.295 2.489v-2.47q.105.01.208.032v2.66c-.023-.026-.046-.045-.07-.07a.8.8 0 0 0-.138-.152m1.172-1.602c.03.114.047.24.047.386 0 .19-.018.38-.046.564zm-.086 1.374a6 6 0 0 1-.168.526c-.005 0-.005.006-.011.006q-.019.019-.029.038V8.86q.12.113.208.285zm-.295.64a.4.4 0 0 1-.127.038q-.045.002-.08-.007V8.657c.075.038.144.076.207.127zm-.294.006a1 1 0 0 1-.208-.127v-2.71q.104.027.208.063zm-1.173-.595q-.104.02-.208.05V8.562l.15-.038c.018 0 .04-.006.058-.006zm-1.767-.298a3 3 0 0 1-.058-.279.9.9 0 0 1 .058-.487zm.086-.937c.006-.007.006-.013.012-.02q.085-.124.196-.24v1.685c-.005 0-.011-.007-.011-.007a.63.63 0 0 1-.197-.247zm.295-.349q.095-.095.208-.17v2.02a.7.7 0 0 1-.208-.032zm.295-.234.207-.133v2.179c-.075.012-.144.025-.207.031zm.294-.177q.105-.056.208-.102v2.249l-.208.057zm.295-.14q.103-.047.208-.076v2.28l-.208.057zm-2.143 2.071H13.8q-.018.002-.035-.006a.274.274 0 0 1-.19-.266c0-.127.08-.234.19-.266.011 0 .023-.006.035-.006h.046q.017-.002.034.006c.11.032.191.14.191.266 0 .127-.08.234-.19.266-.012 0-.024.006-.035.006m.133-2.489c0 .095-.07.178-.162.178s-.162-.076-.162-.178.07-.177.162-.177.162.082.162.177m-.012.387.017.038c.006.012.006.031.006.044v.013q.001.02-.006.031c0 .013-.005.02-.005.026a.19.19 0 0 1-.098.114c-.012.006-.024.006-.035.012H13.8q-.018-.002-.035-.012a.17.17 0 0 1-.098-.114c0-.007-.006-.02-.006-.026 0-.012-.006-.025-.006-.031v-.013c0-.019.006-.032.006-.044l.017-.038a.162.162 0 0 1 .29 0m.046.614a.2.2 0 0 1-.133.196q-.017.009-.034.007H13.8c-.012 0-.024-.007-.035-.007a.21.21 0 0 1-.133-.196.21.21 0 0 1 .133-.196q.017-.009.035-.007h.046c.011 0 .023.007.034.007a.2.2 0 0 1 .133.196m-.133.81q-.017.009-.034.007H13.8c-.012 0-.024-.006-.035-.006a.25.25 0 0 1-.162-.235c0-.107.07-.209.162-.234q.017-.008.035-.006h.046c.011 0 .023.006.034.006a.25.25 0 0 1 .162.234.24.24 0 0 1-.162.235m.122-1.589q-.026.002-.04.032c-.006-.007-.018-.007-.024-.013a.28.28 0 0 0 .11-.14.3.3 0 0 0 .075.102zm-.41-.127a.25.25 0 0 0 .11.14c-.006.006-.018.006-.024.012-.006-.012-.023-.025-.04-.031l-.121-.026a.4.4 0 0 0 .075-.095m-2.143.247c.063.02.138.051.208.076v2.261l-.208-.057zm1.467 1.147a.9.9 0 0 1 .058.487 3 3 0 0 1-.058.279zM11.743 8.7q.105.046.208.102v2.204q-.103-.03-.208-.057zm.29.146q.104.057.207.133v2.077q-.095-.011-.208-.031zm.294.196q.112.085.208.171v1.818a.6.6 0 0 1-.208.032zm.294.254q.111.116.197.24c.005.007.005.013.011.02v1.165a.54.54 0 0 1-.196.247c-.006 0-.012.006-.012.006zm-1.409-.773a1 1 0 0 1 .15.038v2.286c-.07-.019-.139-.031-.208-.05v-2.28c.018 0 .04 0 .058.006m-.878 2.603c-.017.019-.04.044-.063.063V8.53q.104-.02.207-.031v2.47c-.052.044-.098.101-.144.158M9.3 10.329a4 4 0 0 1-.046-.564q.001-.216.046-.386zm.087-1.19c.057-.115.127-.203.208-.286v2.458q-.019-.02-.03-.038-.001-.009-.01-.007a5 5 0 0 1-.168-.525zm.797 2.127a1 1 0 0 1-.208.127V8.619c.07-.025.138-.05.208-.063zm-.295.152q-.045.009-.08.007a.23.23 0 0 1-.128-.038V8.784c.064-.051.133-.089.208-.127zm.676-2.926c.058-.006.121-.006.173-.006h.035v2.312a.6.6 0 0 0-.208.101zm.295 2.293V8.492q.103.002.208.013v2.28a.6.6 0 0 0-.208 0m2.056.19c.19-.595.283-1.286.335-1.957 0-.019.006-.044.006-.063s.005-.045.005-.064c.006-.057.006-.107.012-.164V8.6c0-.019 0-.044.006-.063v-.013l.017.006.173.032.087.019c0 .025-.006.05-.006.076 0 .013-.005.032-.005.044 0 .013-.006.032-.006.045-.012.101-.018.215-.03.342-.01.145-.022.304-.04.468a14 14 0 0 1-.161 1.248 1.1 1.1 0 0 0-.399.209c-.006.006-.011.006-.017.013a.2.2 0 0 0 .023-.051m1.248-1.419c-.018-.164-.03-.323-.04-.468-.013-.12-.018-.235-.03-.342 0-.013-.006-.032-.006-.045 0-.019-.005-.031-.005-.044 0-.025-.006-.05-.006-.076l.087-.019.173-.032.017-.006v.013c0 .019 0 .044.006.063v.127c.006.057.006.107.011.164 0 .02.006.045.006.064s.006.044.006.063c.052.671.144 1.362.335 1.957q.008.03.017.05c-.005-.006-.011-.006-.017-.012a1.3 1.3 0 0 0-.393-.209 16 16 0 0 1-.161-1.248m2.414-1.051c.07-.006.139-.013.208-.013v2.293c-.07-.013-.139-.006-.208 0zm-2.565-.424a.14.14 0 0 0-.04-.045c.017-.006.04-.012.058-.019q-.009.037-.018.064m-.346-.045a.14.14 0 0 0-.04.045c-.007-.02-.012-.045-.018-.064a.1.1 0 0 0 .058.02m5.458 3.173c-.127 0-.225-.114-.225-.247 0-.139.104-.247.225-.247s.225.114.225.247-.098.247-.225.247m-.225-.538c.011-.076.029-.158.04-.24a.4.4 0 0 0 .127.151.34.34 0 0 0-.167.089m.346-.158c-.127 0-.225-.114-.225-.247 0-.14.104-.247.225-.247s.226.114.226.247a.23.23 0 0 1-.226.247m-.271-.475c.006-.07.006-.146.006-.216v-.038c.04.057.092.102.156.127a.34.34 0 0 0-.162.127m.277-.228c-.127 0-.225-.114-.225-.247s.104-.247.225-.247c.127 0 .225.114.225.247s-.098.247-.225.247m-.317-.393a4 4 0 0 0-.064-.234c.052.044.115.07.179.076a.4.4 0 0 0-.116.158m.144-.285c-.127 0-.225-.114-.225-.247s.104-.247.225-.247.225.114.225.247-.098.247-.225.247m-.34-.266c-.041-.07-.082-.14-.134-.209a.3.3 0 0 0 .19.006.4.4 0 0 0-.057.203m-.353-.462a2 2 0 0 0-.174-.146.34.34 0 0 0 .174-.057q-.01.047-.012.095a.2.2 0 0 0 .012.108m-.474-.317a1 1 0 0 0-.208-.076.36.36 0 0 0 .15-.12c0 .076.024.139.058.196m-.768-.158a.34.34 0 0 0 .115-.159.4.4 0 0 0 .099.171c-.07-.012-.139-.012-.214-.012m-.375.012q-.122.008-.243.026a.4.4 0 0 0 .104-.203c.029.07.08.133.139.177m-.63.083a3 3 0 0 0-.254.05.35.35 0 0 0 .098-.228c.035.076.087.14.156.178m-1.277.31c-.005 0-.011.006-.017.006-.08.026-.162.045-.237.064a.4.4 0 0 0 .087-.235.32.32 0 0 0 .167.165M12.8 8.34c-.005 0-.011-.006-.017-.006a.34.34 0 0 0 .168-.165.4.4 0 0 0 .086.235c-.08-.02-.156-.045-.237-.064m-1.3-.316a.37.37 0 0 0 .157-.178.4.4 0 0 0 .098.228 3 3 0 0 0-.254-.05m-.629-.083a.37.37 0 0 0 .139-.177.4.4 0 0 0 .104.203 3 3 0 0 0-.243-.026m-.375-.012q-.114.002-.22.012a.35.35 0 0 0 .098-.17.6.6 0 0 0 .122.158m-.56.082c-.07.019-.14.05-.208.076a.4.4 0 0 0 .052-.196.4.4 0 0 0 .155.12m-.503.253a1.4 1.4 0 0 0-.173.146c.011-.032.011-.07.011-.108q-.002-.047-.011-.095.078.048.173.057m-.503.412a.3.3 0 0 0 .11-.019 2 2 0 0 0-.133.209.37.37 0 0 0-.057-.196q.036.008.08.006m-.161.507a3 3 0 0 0-.064.234.34.34 0 0 0-.115-.158.4.4 0 0 0 .179-.076m-.382.126c.128 0 .226.114.226.247s-.104.247-.226.247c-.127 0-.225-.114-.225-.247s.098-.247.225-.247m.278.475v.038q-.002.113.006.216a.35.35 0 0 0-.156-.127.37.37 0 0 0 .15-.127m-.272.235c.127 0 .226.114.226.247 0 .139-.104.247-.226.247-.121 0-.225-.114-.225-.247 0-.14.104-.247.225-.247m.306.411c.012.083.024.159.04.241a.3.3 0 0 0-.167-.082.37.37 0 0 0 .127-.159m-.179.279c.127 0 .226.114.226.247 0 .14-.104.247-.226.247-.121 0-.225-.114-.225-.247a.23.23 0 0 1 .225-.247m10.241.545c.018-.051.03-.108.046-.159q.035.107.122.165-.088-.007-.168-.006m-3.425-3.281c.04.082.104.152.185.19-.087.025-.18.044-.266.07a.4.4 0 0 0 .081-.241zm-2.946.253c-.086-.025-.173-.044-.265-.07a.34.34 0 0 0 .184-.19v.013c0 .102.03.184.081.247m-3.552 2.87c.017.05.029.107.046.158-.052 0-.11 0-.162.006a.37.37 0 0 0 .116-.165"/><path fill="#000" d="M18.623 12.85c-.012.006-.03.006-.04.012a.1.1 0 0 0-.041.026c-.018.006-.03.019-.047.025a.2.2 0 0 1-.127.044c-.034 0-.075 0-.069-.082s.104-.279.185-.412l.006-.006c.029-.05.023-.07 0-.07h-.006q-.027.002-.064.032a3 3 0 0 0-.277.31c-.006.007-.006.013-.011.02a.2.2 0 0 0-.03.044c-.074.107-.15.088-.167.057a.5.5 0 0 1-.052-.152c0-.013-.005-.02-.005-.032 0-.006-.006-.013-.006-.019-.018-.05-.046-.07-.064-.032a.1.1 0 0 0-.011.051v.032c0 .095.034.202.063.36v.013c0 .013.006.032.006.051v.044c.006.171-.035.412-.145.69-.04.108.035.07.093-.05.104-.209.318-.43.56-.64a.2.2 0 0 1 .058-.044c.017-.019.035-.032.058-.05h.006q.018-.02.046-.039c.011-.012.029-.025.04-.038.029-.019.052-.044.081-.063.07-.05.052-.101-.04-.082M8.526 11.836a.1.1 0 0 0-.058-.019c-.046 0-.046.051-.011.083.052.044.115.088.179.139.07.063.098.006.063-.05-.04-.045-.075-.096-.173-.153M9.063 12.007q.026.048.04.095c0 .007.006.013.006.02.006.018.024.031.035.044.035.025.07.012.046-.057q-.018-.057-.029-.095l-.017-.057q-.01-.04-.029-.089l-.017-.032q-.008-.009-.023-.019c-.006-.006-.018-.006-.023-.012-.012-.007-.018-.007-.03-.007-.028 0-.051.026-.028.083.029.044.046.088.07.126M8.81 11.798q-.045-.065-.07-.063c-.04 0-.052.076-.012.127a.8.8 0 0 0 .15.17c.047.045.064-.012.04-.063-.028-.044-.063-.095-.109-.17M9.774 13.173v-.045c0-.019.006-.031.006-.05v-.013c.028-.158.057-.266.063-.361v-.032a.1.1 0 0 0-.012-.05c-.017-.032-.046-.02-.063.031 0 .007-.006.013-.006.02 0 .006-.006.018-.006.031-.017.057-.04.12-.052.152-.017.032-.098.05-.167-.057q-.01-.018-.029-.044-.01-.01-.012-.02a3 3 0 0 0-.277-.31q-.036-.03-.063-.031H9.15c-.023 0-.029.025 0 .07l.006.006c.086.126.179.323.185.411.005.083-.03.083-.07.083a.22.22 0 0 1-.127-.045c-.011-.006-.029-.019-.046-.025-.012-.006-.029-.019-.04-.025a.1.1 0 0 0-.04-.013c-.1-.025-.11.032-.041.082.029.02.052.045.08.064a.3.3 0 0 1 .04.038c.018.012.03.025.047.038h.006c.017.012.04.031.058.05.017.013.034.032.057.045.243.215.457.437.56.64.058.113.134.158.093.05-.11-.279-.15-.52-.144-.69M19.004 12.045q.093-.084.179-.139c.04-.032.035-.082-.012-.082a.1.1 0 0 0-.058.019c-.098.05-.132.107-.173.158-.034.05-.006.108.064.044M18.767 12.033c.058-.057.098-.102.15-.171.035-.051.023-.127-.011-.127q-.026-.002-.07.063c-.046.076-.08.127-.104.178-.029.044-.017.107.035.057M13.54 11.425c.005-.057.011-.14.005-.247 0-.038-.017-.057-.04-.064h-.012c-.028.007-.057.038-.057.07.005.063.017.14.023.234.011.102.075.064.08.007M13.684 11.444c.012.095.064.07.075 0v-.013c.012-.063.006-.114.012-.24a.2.2 0 0 0-.012-.058c-.011-.031-.034-.044-.058-.044-.034 0-.063.032-.052.082.012.064.024.184.035.273M11.547 11.659c.035.089.087.07.07.013-.012-.057-.03-.152-.07-.292-.017-.063-.046-.082-.07-.076-.028.007-.051.057-.034.114.035.083.075.152.104.241M11.276 11.564c.023.076.08.05.063-.013-.017-.07-.023-.107-.064-.234-.017-.063-.052-.082-.075-.076s-.04.038-.023.076c.03.082.07.165.098.247M10.865 11.59c-.011-.051-.029-.108-.046-.178q-.017-.074-.052-.063c-.034.006-.063.063-.04.107.034.07.052.095.08.171.041.07.076.013.058-.038M10.634 11.57c-.017-.038-.04-.05-.057-.05-.035 0-.058.05-.024.114.035.076.099.164.128.215s.08.019.046-.05c-.04-.058-.052-.134-.093-.229M12.893 11.925q-.01-.057-.046-.057h-.012c-.023.006-.046.038-.035.076.018.076.04.152.052.228s.093.076.075.006c-.005-.07-.011-.152-.034-.253M12.997 11.526c-.035 0-.07.05-.058.095.017.076.046.14.07.234.017.083.074.045.069-.012-.006-.057-.012-.133-.035-.254q-.01-.065-.046-.063M11.853 11.583c-.011-.05-.04-.082-.07-.082h-.01q-.027.007-.018.063c.011.063.052.19.07.247.017.057.08.044.069-.032-.024-.082-.024-.107-.04-.196M13.234 11.564c0 .07.052.044.057-.006.006-.051.012-.152.012-.247q.001-.058-.023-.076-.018-.018-.035-.007-.024.01-.04.038-.008.018-.006.045c.017.082.034.17.034.253M11.045 11.564c.034.082.08.032.063-.025s-.035-.12-.08-.241c-.018-.044-.041-.063-.059-.063-.034 0-.052.044-.034.101.034.089.075.14.11.228M10.403 12.153c-.011-.019-.034-.032-.052-.025-.034.006-.069.044-.023.101.07.095.139.158.168.196.023.038.092.02.046-.05-.046-.076-.116-.171-.139-.222M10.473 11.836q-.028-.048-.047-.05c-.034-.007-.04.095-.011.139.04.057.098.127.156.203.046.063.075.006.046-.045-.023-.057-.064-.114-.144-.247M11.576 12.235c-.046.114-.127.159-.185.064a3.4 3.4 0 0 1-.231-.488c-.012-.044-.035-.063-.046-.07h-.012c-.017.007-.029.045-.017.108.08.323.104.488.092.57-.011.076-.052.089-.104.063a1 1 0 0 1-.161-.101c-.047-.038-.099.006-.03.07.093.082.174.17.255.26.098.12.185.24.26.373.005.013.017.032.023.05l.023.045q.085.179.127.386c.017.089.07.102.058 0-.018-.133-.035-.266-.046-.386q.001-.027-.006-.044c0-.02 0-.032-.006-.051a3 3 0 0 1-.006-.374c.006-.17.035-.316.087-.43.04-.114-.006-.216-.075-.045M9.387 12.197c.017.051.069.026.057-.044q-.01-.056-.011-.101c-.006-.026-.006-.057-.012-.095a.07.07 0 0 0-.052-.057c-.005 0-.017-.007-.023-.007-.029 0-.057.026-.046.076.023.089.07.178.087.228M9.606 12.299c.018.07.058.057.058-.007 0-.063-.012-.133-.017-.202-.006-.032-.03-.057-.052-.057-.023 0-.04.019-.035.07q.02.102.046.196M13.886 11.437c.012.076.064.095.075 0 .012-.082.023-.209.035-.272.006-.057-.023-.089-.052-.082-.023 0-.046.012-.058.044a.14.14 0 0 0-.011.057c.005.127 0 .177.011.24q-.008.012 0 .013M14.18 11.425c.007-.095.024-.171.024-.235 0-.031-.029-.07-.058-.07h-.011c-.018 0-.035.02-.04.064-.007.108 0 .19.005.247.011.05.075.089.08-.006M18.496 12.166a.1.1 0 0 0 .034-.045c0-.006.006-.012.006-.019.011-.025.029-.057.04-.095q.029-.068.058-.126c.023-.057.006-.083-.029-.083-.011 0-.017 0-.029.007-.005 0-.017.006-.023.012-.006.007-.017.013-.023.02a.1.1 0 0 0-.017.031c-.012.032-.018.063-.03.089l-.016.057c-.006.031-.018.057-.03.095-.017.07.024.076.058.057M17.294 12.128h-.012c-.017 0-.028.012-.04.025-.029.057-.092.146-.133.222-.04.076.023.088.046.05.024-.038.099-.101.168-.196.04-.063.006-.095-.029-.101M17.213 11.786c-.011 0-.029.019-.046.05-.075.133-.121.19-.15.241s0 .108.046.044c.058-.076.116-.145.156-.202.035-.038.035-.14-.006-.133M17.069 11.526c-.017 0-.046.013-.058.05-.04.096-.052.172-.087.241-.034.07.018.102.047.051s.092-.146.127-.215c.029-.076.006-.127-.03-.127M14.412 11.564c0-.082.017-.171.029-.253.005-.013 0-.032-.006-.045-.006-.019-.023-.038-.04-.038h-.018c-.006 0-.011.007-.017.007-.012.012-.023.038-.023.076 0 .095.005.196.011.247s.064.076.064.006M16.872 11.349c-.017 0-.04.012-.052.063q-.027.104-.046.177c-.011.051.023.108.052.032.03-.076.052-.101.081-.171.023-.038-.006-.095-.035-.101M16.37 11.564c.029-.082.07-.165.098-.24.012-.039 0-.07-.023-.077h-.017c-.018.007-.047.026-.058.076-.04.127-.046.165-.064.235-.023.057.035.076.064.006M14.805 11.868h-.012c-.017 0-.035.019-.046.057-.023.101-.029.184-.04.253-.012.07.063.064.074-.006.012-.076.035-.152.053-.228.017-.044-.006-.076-.03-.076M14.643 11.526q-.036-.002-.046.063c-.023.12-.03.197-.035.254s.052.095.07.012c.022-.095.051-.158.069-.234.011-.044-.024-.095-.058-.095M16.601 11.564c.035-.089.075-.146.11-.228.023-.05 0-.101-.035-.101-.017 0-.04.019-.058.063-.046.12-.063.184-.08.24-.018.058.028.108.063.026M14.383 11.988a.7.7 0 0 1-.15.108c-.012.006-.03.019-.04.025-.07.045-.15.064-.203-.012a.7.7 0 0 1-.104-.285q-.01-.057-.011-.114c0-.038-.006-.083-.023-.102l-.006-.006c-.006 0-.012-.006-.018-.006q-.008-.002-.017.006l-.006.006c-.017.02-.023.064-.023.102a1 1 0 0 1-.011.114 1 1 0 0 1-.104.285c-.052.076-.133.057-.202.012-.018-.006-.03-.019-.04-.025-.047-.032-.088-.063-.151-.108-.075-.063-.133-.025-.046.114.063.095.121.19.185.285.133.203.248.418.317.684.006.013.006.032.012.051.006.013.006.032.011.044q.035.178.035.387c0 .088.012.114.046.114.035 0 .052-.026.052-.114q0-.218.035-.387c.006-.019.006-.031.011-.044.006-.019.006-.032.012-.05.063-.267.185-.482.312-.685q.088-.143.185-.285c.075-.139.017-.17-.058-.114M16.734 12.375a1 1 0 0 1-.162.101c-.052.025-.092.013-.104-.063s.012-.247.093-.57c.017-.057.005-.102-.018-.108h-.011q-.028.001-.047.07c-.04.12-.167.386-.23.487-.064.102-.14.057-.185-.063-.07-.171-.116-.07-.07.038.052.114.075.26.087.43q.01.174-.006.374.002.021-.006.051c0 .013 0 .032-.005.044-.012.12-.03.254-.047.387-.011.101.035.088.058 0 .029-.133.075-.266.127-.387.006-.019.018-.031.023-.044.006-.019.018-.032.023-.05q.104-.202.26-.374.114-.135.255-.26c.063-.057.011-.101-.035-.063M15.867 11.5h-.011c-.023 0-.058.032-.07.083-.017.089-.017.114-.034.196-.017.083.052.095.07.032.017-.057.057-.184.069-.247.005-.038-.006-.057-.024-.063M16.093 11.659c.034-.089.069-.158.092-.24.017-.064 0-.108-.035-.115-.023-.006-.051.02-.069.076-.04.14-.052.235-.07.292-.005.057.053.076.082-.013M18.259 12.197c.017-.05.063-.145.086-.228.012-.05-.011-.076-.046-.076-.006 0-.017 0-.023.007a.07.07 0 0 0-.052.057c-.006.038-.012.063-.012.095-.005.031-.005.063-.011.101-.012.076.04.101.058.044M18.033 12.299c.018-.07.035-.127.047-.197.011-.05-.012-.07-.035-.07s-.052.026-.052.058q-.017.106-.017.202c0 .064.046.076.057.007"/></g><defs><clipPath><path fill="#fff" d="M1 1h38v38H1z"/></clipPath></defs></svg>