<svg xmlns="http://www.w3.org/2000/svg" width="48" height="48" viewBox="0 0 48 48"><path fill-rule="evenodd" d="m31.363 14.467-7.425 7.424-7.425-7.424-2.12 2.12 7.424 7.426-7.425 7.424 2.121 2.121 7.425-7.424 7.425 7.425 2.121-2.122-7.425-7.425 7.425-7.424z"/><path fill-rule="evenodd" d="M14.13 6h19.65c.45 0 .84.24 1.05.6l9.81 16.8c.21.36.21.84 0 1.2l-9.81 16.8c-.24.36-.63.6-1.05.6H14.16c-.45 0-.84-.24-1.05-.6L3.3 24.6c-.21-.36-.21-.84 0-1.2l9.78-16.8c.24-.36.63-.6 1.05-.6m27.36 18L32.73 9H15.18L6.42 24l8.76 15h17.55z" clip-rule="evenodd"/></svg>