<svg xmlns="http://www.w3.org/2000/svg" width="48" height="48" viewBox="0 0 48 48"><path fill-rule="evenodd" d="M44.732 23.105C38.378 13.888 31.219 9.025 24 9.025S9.622 13.889 3.268 23.106c-.357.537-.357 1.253 0 1.82C9.622 34.112 16.781 38.975 24 38.975s14.378-4.863 20.731-14.08a1.63 1.63 0 0 0 0-1.79M41.749 24C39.75 26.774 32.382 35.99 24 35.99S8.25 26.774 6.251 24C8.25 21.226 15.618 12.009 24 12.009s15.72 9.217 17.749 11.99" clip-rule="evenodd"/><path fill-rule="evenodd" d="M24 18.72a5.26 5.26 0 0 1 5.25 5.25A5.26 5.26 0 0 1 24 29.22a5.26 5.26 0 0 1-5.25-5.25A5.26 5.26 0 0 1 24 18.72m0-2.953a8.2 8.2 0 0 0-8.203 8.203A8.2 8.2 0 0 0 24 32.173a8.2 8.2 0 0 0 8.203-8.203A8.2 8.2 0 0 0 24 15.767" clip-rule="evenodd"/></svg>