<svg xmlns="http://www.w3.org/2000/svg" width="48" height="48" viewBox="0 0 48 48"><path fill-rule="evenodd" d="M34.5 30c-2.34 0-4.41 1.11-5.79 2.79L17.67 26.1c.21-.66.33-1.38.33-2.1s-.12-1.38-.3-2.01l11.07-6.69c1.38 1.65 3.42 2.7 5.73 2.7 4.14 0 7.5-3.36 7.5-7.5S38.64 3 34.5 3 27 6.36 27 10.5c0 .75.15 1.47.36 2.16l-11.04 6.69c-1.38-1.71-3.45-2.82-5.82-2.82-4.14 0-7.5 3.36-7.5 7.5s3.36 7.5 7.5 7.5c2.34 0 4.38-1.08 5.76-2.73l11.07 6.69c-.18.66-.33 1.32-.33 2.04 0 4.14 3.36 7.5 7.5 7.5s7.5-3.36 7.5-7.5-3.36-7.5-7.5-7.5z" clip-rule="evenodd"/></svg>