<svg xmlns="http://www.w3.org/2000/svg" width="48" height="48" fill="none" viewBox="0 0 48 48"><path fill="#fff" d="M12.1 8.473c4.818 3.59 9.99 10.865 11.893 14.78v10.324c0-.216-.082.027-.273.57-1 2.899-4.872 14.198-13.727 5.161-4.667-4.755-2.504-9.51 5.994-10.947-4.858.827-10.318-.542-11.824-5.852C3.725 20.978 3 11.549 3 10.275c0-6.395 5.625-4.403 9.1-1.802m23.8 0c-4.818 3.59-9.99 10.865-11.893 14.78v10.324c0-.216.082.027.273.57 1 2.899 4.872 14.198 13.727 5.161 4.666-4.755 2.504-9.51-5.994-10.947 4.858.827 10.318-.542 11.824-5.852C44.275 20.978 45 11.549 45 10.275c0-6.395-5.625-4.403-9.1-1.802"/></svg>