<svg xmlns="http://www.w3.org/2000/svg" width="48" height="48" viewBox="0 0 48 48"><path d="M43.17 5.97C41.82 4.32 39.99 3.42 37.92 3H9.96c-2.04.48-3.75 1.32-5.1 2.94C3.87 7.11 3.45 8.46 3 9.87v28.26c.33.78.48 1.65.84 2.43.78 1.56 2.46 3.15 4.08 3.81.63.27 1.32.36 1.95.63h28.17c2.52-.54 4.77-1.95 6-4.23.48-.87.66-1.8.96-2.73V9.96c-.39-1.47-.84-2.79-1.83-3.99m-8.49 13.11c-.45 3.93-6.45 11.85-9.75 13.98-3.42 2.19-5.28.69-6.45-2.76-.81-2.43-1.77-8.4-3.21-10.11-1.05-1.23-1.56.09-2.46.45-.48.18-.93-.96-1.29-1.23l.09-.18c1.29-.99 2.37-2.22 3.63-3.24 1.44-1.17 3.48-2.76 5.22-1.11s1.59 8.4 2.97 11.1c.27.51.54 1.02 1.17.78.84-.27 2.55-3.15 2.94-4.02 1.23-2.73.45-4.47-2.7-3.36.84-3.33 3.15-5.76 6.81-5.46 2.76.24 3.3 2.82 3.06 5.19z"/></svg>