<svg xmlns="http://www.w3.org/2000/svg" width="48" height="48" fill="none" viewBox="0 0 48 48"><path fill="#17D4FE" d="M37.944 3c2.072.448 3.892 1.344 5.236 2.968C44.188 7.172 44.608 8.46 45 9.944V38c-.308.924-.476 1.848-.952 2.716-1.232 2.296-3.5 3.696-6.02 4.228H9.86c-.616-.28-1.316-.364-1.932-.616-1.624-.672-3.304-2.24-4.06-3.808-.392-.784-.532-1.624-.84-2.436V9.86c.448-1.428.896-2.772 1.876-3.948C6.22 4.316 7.928 3.476 9.972 3zm-17.5 11.844c-1.736-1.652-3.78-.028-5.208 1.12-1.26 1.008-2.352 2.24-3.64 3.22l-.084.196c.392.252.812 1.428 1.288 1.232.924-.364 1.428-1.68 2.464-.448 1.456 1.708 2.38 7.672 3.22 10.108 1.176 3.444 3.024 4.956 6.44 2.772s9.296-10.052 9.744-13.972c.252-2.352-.28-4.928-3.052-5.18-3.668-.308-5.964 2.128-6.804 5.46 3.164-1.092 3.92.644 2.716 3.36-.392.868-2.1 3.752-2.94 4.032-.644.224-.924-.28-1.176-.784-1.372-2.716-1.232-9.464-2.968-11.116"/><path fill="#0A0F13" d="M20.444 14.844c1.736 1.652 1.596 8.4 2.968 11.116.252.504.532 1.008 1.176.784.84-.28 2.548-3.164 2.94-4.032 1.232-2.716.476-4.48-2.716-3.36.84-3.332 3.164-5.768 6.804-5.46 2.772.252 3.304 2.828 3.052 5.18-.448 3.92-6.44 11.844-9.744 13.972s-5.264.7-6.44-2.772c-.812-2.436-1.764-8.4-3.22-10.108-1.036-1.232-1.54.084-2.464.448-.476.196-.924-.98-1.288-1.232l.084-.196c1.288-.98 2.38-2.212 3.64-3.22 1.428-1.148 3.5-2.772 5.208-1.12"/></svg>